<?xml version="1.0" encoding="UTF-8"?>
<svg version="1.1" xmlns="http://www.w3.org/2000/svg" width="640" height="640">
<path d="M0 0 C3.47712994 0.00314716 6.9533951 -0.02034629 10.43041992 -0.0456543 C69.87244678 -0.21434006 127.93158427 18.55809066 177.9440918 50.31567383 C178.8727002 50.90082764 178.8727002 50.90082764 179.82006836 51.49780273 C182.2375745 53.02122837 184.64791209 54.55427026 187.0456543 56.10864258 C188.92322563 57.3479498 188.92322563 57.3479498 190.9440918 58.31567383 C192.1197168 59.52223633 192.1197168 59.52223633 193.3190918 60.75317383 C196.46017328 63.81946766 198.84298387 64.94863785 202.9440918 66.31567383 C203.2740918 67.30567383 203.6040918 68.29567383 203.9440918 69.31567383 C204.9031543 69.53223633 204.9031543 69.53223633 205.8815918 69.75317383 C206.5622168 69.93879883 207.2428418 70.12442383 207.9440918 70.31567383 C208.61075846 71.64900716 209.27742513 72.98234049 209.9440918 74.31567383 C210.6040918 74.48067383 211.2640918 74.64567383 211.9440918 74.81567383 C212.6040918 74.98067383 213.2640918 75.14567383 213.9440918 75.31567383 C215.0065918 77.25317383 215.0065918 77.25317383 215.9440918 79.31567383 C218.70158288 81.2881105 218.70158288 81.2881105 221.0065918 82.19067383 C223.41856484 83.59117431 223.71617358 84.8513534 224.9440918 87.31567383 C226.28710371 88.96103756 226.28710371 88.96103756 227.8425293 90.47973633 C228.40456055 91.0443457 228.9665918 91.60895508 229.5456543 92.19067383 C230.13088867 92.76817383 230.71612305 93.34567383 231.3190918 93.94067383 C232.1853418 94.81852539 232.1853418 94.81852539 233.0690918 95.71411133 C233.63370117 96.27614258 234.19831055 96.83817383 234.7800293 97.41723633 C235.29098145 97.92593262 235.80193359 98.43462891 236.32836914 98.95874023 C237.9330377 100.4142195 237.9330377 100.4142195 240.07543945 101.37573242 C242.50510075 102.59786412 242.83840714 103.88316757 243.9440918 106.31567383 C245.83373965 108.45179749 247.52769904 109.70474532 249.9440918 111.31567383 C250.0884668 111.97567383 250.2328418 112.63567383 250.3815918 113.31567383 C250.5672168 113.97567383 250.7528418 114.63567383 250.9440918 115.31567383 C251.6040918 115.64567383 252.2640918 115.97567383 252.9440918 116.31567383 C253.6040918 116.64567383 254.2640918 116.97567383 254.9440918 117.31567383 C255.30571208 118.64161487 255.64137218 119.9750584 255.9440918 121.31567383 C256.9340918 121.64567383 257.9240918 121.97567383 258.9440918 122.31567383 C259.2740918 123.30567383 259.6040918 124.29567383 259.9440918 125.31567383 C260.6040918 125.64567383 261.2640918 125.97567383 261.9440918 126.31567383 C262.2740918 127.30567383 262.6040918 128.29567383 262.9440918 129.31567383 C263.6040918 129.64567383 264.2640918 129.97567383 264.9440918 130.31567383 C265.2740918 131.30567383 265.6040918 132.29567383 265.9440918 133.31567383 C266.49967773 133.84290039 267.05526367 134.37012695 267.62768555 134.91333008 C271.04648644 138.45896675 273.42519586 142.57542998 276.0065918 146.75317383 C276.80033203 148.02257812 276.80033203 148.02257812 277.61010742 149.31762695 C279.06290839 151.64538961 280.50532305 153.97922095 281.9440918 156.31567383 C282.85481445 157.78327148 282.85481445 157.78327148 283.78393555 159.28051758 C284.9440918 161.31567383 284.9440918 161.31567383 285.4440918 163.44067383 C285.79724603 165.40329906 285.79724603 165.40329906 287.33618164 166.68383789 C290.22639927 169.6170621 291.74715282 173.41004143 293.5690918 177.06567383 C293.97643555 177.85200195 294.3837793 178.63833008 294.8034668 179.44848633 C297.15930302 184.14455722 298.53725853 188.06892753 298.9440918 193.31567383 C299.6040918 193.31567383 300.2640918 193.31567383 300.9440918 193.31567383 C301.6040918 196.61567383 302.2640918 199.91567383 302.9440918 203.31567383 C303.6040918 203.31567383 304.2640918 203.31567383 304.9440918 203.31567383 C305.0884668 204.07879883 305.2328418 204.84192383 305.3815918 205.62817383 C306.10870258 209.10214757 306.95801828 211.33656356 308.9440918 214.31567383 C310.72610386 218.56180782 312.01102079 222.78132866 312.3815918 227.37817383 C312.96715719 234.50679602 315.12555404 241.42214699 316.9440918 248.31567383 C317.6040918 248.31567383 318.2640918 248.31567383 318.9440918 248.31567383 C319.48327123 253.01423743 319.984884 257.70708721 320.38330078 262.41967773 C320.72875426 266.26982222 321.15827263 270.09280442 321.68261719 273.92260742 C323.78000412 289.31264153 324.46011221 304.41851532 324.3815918 319.94067383 C324.38002075 321.69486633 324.38002075 321.69486633 324.37841797 323.48449707 C324.34592186 341.13409687 323.24389901 358.06600061 320.3112793 375.4699707 C319.84620925 379.0742636 319.87411913 382.56204115 320.0690918 386.18579102 C319.92264733 388.68106739 319.18768083 390.16804616 317.9440918 392.31567383 C313.55851806 400.26130155 311.82597231 410.1207947 311.2253418 419.08520508 C310.76085198 422.76886742 309.3935813 425.91252457 307.9440918 429.31567383 C307.2840918 429.31567383 306.6240918 429.31567383 305.9440918 429.31567383 C305.9853418 430.26442383 306.0265918 431.21317383 306.0690918 432.19067383 C305.9440918 435.31567383 305.9440918 435.31567383 303.9440918 437.31567383 C301.64775355 440.7601812 301.40392695 443.25379666 300.9440918 447.31567383 C300.2840918 447.31567383 299.6240918 447.31567383 298.9440918 447.31567383 C298.71979492 448.59313477 298.49549805 449.8705957 298.2644043 451.18676758 C297.02411969 456.76804831 294.57313688 461.4062353 291.8190918 466.37817383 C291.35116211 467.2437793 290.88323242 468.10938477 290.40112305 469.0012207 C289.25849281 471.1115888 288.10615207 473.21596216 286.9440918 475.31567383 C286.2840918 475.31567383 285.6240918 475.31567383 284.9440918 475.31567383 C284.87448242 476.50870117 284.87448242 476.50870117 284.8034668 477.72583008 C283.60094735 482.74908177 281.00826046 486.46826702 278.1940918 490.75317383 C277.6681543 491.57366211 277.1422168 492.39415039 276.6003418 493.23950195 C267.7989026 506.88826842 267.7989026 506.88826842 264.9440918 508.31567383 C264.6140918 509.30567383 264.2840918 510.29567383 263.9440918 511.31567383 C262.9540918 511.81067383 262.9540918 511.81067383 261.9440918 512.31567383 C261.6140918 513.30567383 261.2840918 514.29567383 260.9440918 515.31567383 C260.2840918 515.64567383 259.6240918 515.97567383 258.9440918 516.31567383 C258.6140918 517.30567383 258.2840918 518.29567383 257.9440918 519.31567383 C256.9540918 519.64567383 255.9640918 519.97567383 254.9440918 520.31567383 C254.7997168 520.95504883 254.6553418 521.59442383 254.5065918 522.25317383 C254.3209668 522.93379883 254.1353418 523.61442383 253.9440918 524.31567383 C252.61075846 524.98234049 251.27742513 525.64900716 249.9440918 526.31567383 C249.7997168 526.95504883 249.6553418 527.59442383 249.5065918 528.25317383 C248.67763272 531.29269046 246.56527605 531.74296327 243.9440918 533.31567383 C243.57198759 534.638711 243.23779006 535.97305318 242.9440918 537.31567383 C241.3190918 538.69067383 241.3190918 538.69067383 238.9440918 540.31567383 C228.49534415 548.60775127 228.49534415 548.60775127 220.9440918 559.31567383 C219.6133219 559.65909832 218.27977201 559.99187256 216.9440918 560.31567383 C215.26776375 562.24034677 214.08340796 564.03704151 212.9440918 566.31567383 C211.9850293 566.50129883 211.9850293 566.50129883 211.0065918 566.69067383 C210.3259668 566.89692383 209.6453418 567.10317383 208.9440918 567.31567383 C208.6140918 567.97567383 208.2840918 568.63567383 207.9440918 569.31567383 C207.6140918 569.97567383 207.2840918 570.63567383 206.9440918 571.31567383 C205.61815075 571.67729411 204.28470722 572.01295422 202.9440918 572.31567383 C202.6140918 573.30567383 202.2840918 574.29567383 201.9440918 575.31567383 C200.1159668 575.85083008 200.1159668 575.85083008 197.9440918 576.31567383 C195.99882774 577.40925884 195.99882774 577.40925884 194.1940918 578.75317383 C193.58049805 579.18500977 192.9669043 579.6168457 192.3347168 580.06176758 C191.64635742 580.68245117 191.64635742 580.68245117 190.9440918 581.31567383 C190.9440918 581.97567383 190.9440918 582.63567383 190.9440918 583.31567383 C190.36481934 583.43177002 189.78554688 583.54786621 189.1887207 583.66748047 C186.77798429 584.36364157 185.12314434 585.31186827 183.0300293 586.68676758 C182.27866699 587.1735498 181.52730469 587.66033203 180.75317383 588.16186523 C179.94992676 588.68699707 179.14667969 589.21212891 178.3190918 589.75317383 C139.04381218 614.933484 95.33676486 632.08968885 48.9440918 638.31567383 C47.70989502 638.49155029 46.47569824 638.66742676 45.20410156 638.84863281 C32.78036649 640.50117944 20.40773248 640.65493154 7.88818359 640.63134766 C4.41105365 640.62820049 0.93478849 640.65169395 -2.54223633 640.67700195 C-61.98426318 640.84568772 -120.04340068 622.07325699 -170.0559082 590.31567383 C-170.67498047 589.92557129 -171.29405273 589.53546875 -171.93188477 589.13354492 C-174.34939091 587.61011929 -176.75972849 586.07707739 -179.1574707 584.52270508 C-181.03504204 583.28339785 -181.03504204 583.28339785 -183.0559082 582.31567383 C-183.8396582 581.51129883 -184.6234082 580.70692383 -185.4309082 579.87817383 C-188.57198969 576.81188 -190.95480027 575.6827098 -195.0559082 574.31567383 C-195.5509082 572.83067383 -195.5509082 572.83067383 -196.0559082 571.31567383 C-196.6952832 571.17129883 -197.3346582 571.02692383 -197.9934082 570.87817383 C-198.6740332 570.69254883 -199.3546582 570.50692383 -200.0559082 570.31567383 C-200.72257487 568.98234049 -201.38924154 567.64900716 -202.0559082 566.31567383 C-202.7159082 566.15067383 -203.3759082 565.98567383 -204.0559082 565.81567383 C-204.7159082 565.65067383 -205.3759082 565.48567383 -206.0559082 565.31567383 C-207.1184082 563.37817383 -207.1184082 563.37817383 -208.0559082 561.31567383 C-210.81339928 559.34323715 -210.81339928 559.34323715 -213.1184082 558.44067383 C-215.53038125 557.04017335 -215.82798999 555.77999426 -217.0559082 553.31567383 C-218.39892012 551.67031009 -218.39892012 551.67031009 -219.9543457 550.15161133 C-220.51637695 549.58700195 -221.0784082 549.02239258 -221.6574707 548.44067383 C-222.24270508 547.86317383 -222.82793945 547.28567383 -223.4309082 546.69067383 C-224.2971582 545.81282227 -224.2971582 545.81282227 -225.1809082 544.91723633 C-226.02782227 544.07418945 -226.02782227 544.07418945 -226.8918457 543.21411133 C-227.65827393 542.45106689 -227.65827393 542.45106689 -228.44018555 541.67260742 C-230.0448541 540.21712816 -230.0448541 540.21712816 -232.18725586 539.25561523 C-234.61691716 538.03348354 -234.95022354 536.74818008 -236.0559082 534.31567383 C-237.94555606 532.17955017 -239.63951544 530.92660234 -242.0559082 529.31567383 C-242.2002832 528.65567383 -242.3446582 527.99567383 -242.4934082 527.31567383 C-242.6790332 526.65567383 -242.8646582 525.99567383 -243.0559082 525.31567383 C-243.7159082 524.98567383 -244.3759082 524.65567383 -245.0559082 524.31567383 C-245.7159082 523.98567383 -246.3759082 523.65567383 -247.0559082 523.31567383 C-247.41752849 521.98973278 -247.75318859 520.65628926 -248.0559082 519.31567383 C-249.0459082 518.98567383 -250.0359082 518.65567383 -251.0559082 518.31567383 C-251.5509082 516.83067383 -251.5509082 516.83067383 -252.0559082 515.31567383 C-252.7159082 514.98567383 -253.3759082 514.65567383 -254.0559082 514.31567383 C-254.5509082 512.83067383 -254.5509082 512.83067383 -255.0559082 511.31567383 C-255.7159082 510.98567383 -256.3759082 510.65567383 -257.0559082 510.31567383 C-257.5509082 508.83067383 -257.5509082 508.83067383 -258.0559082 507.31567383 C-258.88928711 506.52483398 -258.88928711 506.52483398 -259.73950195 505.71801758 C-263.15830284 502.1723809 -265.53701227 498.05591768 -268.1184082 493.87817383 C-268.64756836 493.0319043 -269.17672852 492.18563477 -269.72192383 491.3137207 C-271.1747248 488.98595804 -272.61713945 486.65212671 -274.0559082 484.31567383 C-274.96663086 482.84807617 -274.96663086 482.84807617 -275.89575195 481.35083008 C-277.0559082 479.31567383 -277.0559082 479.31567383 -277.5559082 477.19067383 C-277.90906244 475.2280486 -277.90906244 475.2280486 -279.44799805 473.94750977 C-282.33821568 471.01428556 -283.85896923 467.22130623 -285.6809082 463.56567383 C-286.08825195 462.7793457 -286.4955957 461.99301758 -286.9152832 461.18286133 C-289.27111943 456.48679044 -290.64907493 452.56242013 -291.0559082 447.31567383 C-291.7159082 447.31567383 -292.3759082 447.31567383 -293.0559082 447.31567383 C-293.7159082 444.01567383 -294.3759082 440.71567383 -295.0559082 437.31567383 C-295.7159082 437.31567383 -296.3759082 437.31567383 -297.0559082 437.31567383 C-297.2002832 436.55254883 -297.3446582 435.78942383 -297.4934082 435.00317383 C-298.22051899 431.52920008 -299.06983469 429.2947841 -301.0559082 426.31567383 C-302.83792026 422.06953983 -304.12283719 417.85001899 -304.4934082 413.25317383 C-305.0789736 406.12455163 -307.23737045 399.20920067 -309.0559082 392.31567383 C-309.7159082 392.31567383 -310.3759082 392.31567383 -311.0559082 392.31567383 C-311.59508763 387.61711022 -312.09670041 382.92426045 -312.49511719 378.21166992 C-312.84057067 374.36152544 -313.27008903 370.53854323 -313.79443359 366.70874023 C-315.89182053 351.31870613 -316.57192862 336.21283234 -316.4934082 320.69067383 C-316.49236084 319.52121216 -316.49131348 318.35175049 -316.49023438 317.14685059 C-316.45773827 299.49725078 -315.35571542 282.56534705 -312.4230957 265.16137695 C-311.95802565 261.55708406 -311.98593553 258.0693065 -312.1809082 254.44555664 C-312.03446374 251.95028026 -311.29949723 250.46330149 -310.0559082 248.31567383 C-305.67033446 240.37004611 -303.93778871 230.51055296 -303.3371582 221.54614258 C-302.87266838 217.86248024 -301.5053977 214.71882309 -300.0559082 211.31567383 C-299.3959082 211.31567383 -298.7359082 211.31567383 -298.0559082 211.31567383 C-298.0971582 210.36692383 -298.1384082 209.41817383 -298.1809082 208.44067383 C-298.0559082 205.31567383 -298.0559082 205.31567383 -296.0559082 203.31567383 C-293.80684869 200.41189452 -293.80684869 200.41189452 -293.5559082 196.75317383 C-293.0559082 193.31567383 -293.0559082 193.31567383 -291.0559082 191.31567383 C-289.94503367 189.32885569 -289.94503367 189.32885569 -289.63623047 186.98095703 C-289.03186588 184.20525312 -288.11199219 182.16686808 -286.77075195 179.67114258 C-286.32280273 178.8300293 -285.87485352 177.98891602 -285.41333008 177.12231445 C-284.71046875 175.82583984 -284.71046875 175.82583984 -283.9934082 174.50317383 C-283.5209668 173.61952148 -283.04852539 172.73586914 -282.56176758 171.82543945 C-281.39887537 169.65235805 -280.23012445 167.48265099 -279.0559082 165.31567383 C-278.3959082 165.31567383 -277.7359082 165.31567383 -277.0559082 165.31567383 C-277.00950195 164.52032227 -276.9630957 163.7249707 -276.9152832 162.90551758 C-275.71276376 157.88226589 -273.12007686 154.16308063 -270.3059082 149.87817383 C-269.51700195 148.64744141 -269.51700195 148.64744141 -268.7121582 147.3918457 C-259.91071901 133.74307923 -259.91071901 133.74307923 -257.0559082 132.31567383 C-256.7259082 131.32567383 -256.3959082 130.33567383 -256.0559082 129.31567383 C-255.3959082 128.98567383 -254.7359082 128.65567383 -254.0559082 128.31567383 C-253.5609082 126.83067383 -253.5609082 126.83067383 -253.0559082 125.31567383 C-252.3959082 124.98567383 -251.7359082 124.65567383 -251.0559082 124.31567383 C-250.5609082 122.83067383 -250.5609082 122.83067383 -250.0559082 121.31567383 C-249.0659082 120.98567383 -248.0759082 120.65567383 -247.0559082 120.31567383 C-246.9115332 119.67629883 -246.7671582 119.03692383 -246.6184082 118.37817383 C-246.4327832 117.69754883 -246.2471582 117.01692383 -246.0559082 116.31567383 C-244.72257487 115.64900716 -243.38924154 114.98234049 -242.0559082 114.31567383 C-241.9115332 113.67629883 -241.7671582 113.03692383 -241.6184082 112.37817383 C-240.78944912 109.3386572 -238.67709246 108.88838438 -236.0559082 107.31567383 C-235.683804 105.99263666 -235.34960647 104.65829448 -235.0559082 103.31567383 C-233.4309082 101.94067383 -233.4309082 101.94067383 -231.0559082 100.31567383 C-220.60716056 92.02359638 -220.60716056 92.02359638 -213.0559082 81.31567383 C-211.72513831 80.97224934 -210.39158842 80.63947509 -209.0559082 80.31567383 C-207.37958015 78.39100088 -206.19522436 76.59430615 -205.0559082 74.31567383 C-204.4165332 74.19192383 -203.7771582 74.06817383 -203.1184082 73.94067383 C-202.4377832 73.73442383 -201.7571582 73.52817383 -201.0559082 73.31567383 C-200.7259082 72.65567383 -200.3959082 71.99567383 -200.0559082 71.31567383 C-199.7259082 70.65567383 -199.3959082 69.99567383 -199.0559082 69.31567383 C-197.72996716 68.95405354 -196.39652363 68.61839344 -195.0559082 68.31567383 C-194.5609082 66.83067383 -194.5609082 66.83067383 -194.0559082 65.31567383 C-192.2277832 64.78051758 -192.2277832 64.78051758 -190.0559082 64.31567383 C-188.11064415 63.22208882 -188.11064415 63.22208882 -186.3059082 61.87817383 C-185.69231445 61.44633789 -185.0787207 61.01450195 -184.4465332 60.56958008 C-183.98762695 60.15579102 -183.5287207 59.74200195 -183.0559082 59.31567383 C-183.0559082 58.65567383 -183.0559082 57.99567383 -183.0559082 57.31567383 C-182.47663574 57.19957764 -181.89736328 57.08348145 -181.30053711 56.96386719 C-178.8898007 56.26770609 -177.23496075 55.31947938 -175.1418457 53.94458008 C-174.3904834 53.45779785 -173.63912109 52.97101562 -172.86499023 52.46948242 C-172.06174316 51.94435059 -171.25849609 51.41921875 -170.4309082 50.87817383 C-131.15562858 25.69786366 -87.44858126 8.54165881 -41.0559082 2.31567383 C-39.82171143 2.13979736 -38.58751465 1.9639209 -37.31591797 1.78271484 C-24.89218289 0.13016821 -12.51954889 -0.02358388 0 0 Z M-293.0559082 196.31567383 C-292.0559082 198.31567383 -292.0559082 198.31567383 -292.0559082 198.31567383 Z M299.9440918 196.31567383 C300.9440918 198.31567383 300.9440918 198.31567383 300.9440918 198.31567383 Z M-300.0559082 214.31567383 C-299.0559082 216.31567383 -299.0559082 216.31567383 -299.0559082 216.31567383 Z M306.9440918 214.31567383 C307.9440918 216.31567383 307.9440918 216.31567383 307.9440918 216.31567383 Z M-301.0559082 217.31567383 C-300.0559082 219.31567383 -300.0559082 219.31567383 -300.0559082 219.31567383 Z M307.9440918 217.31567383 C308.9440918 219.31567383 308.9440918 219.31567383 308.9440918 219.31567383 Z M-302.0559082 219.31567383 C-301.0559082 222.31567383 -301.0559082 222.31567383 -301.0559082 222.31567383 Z M308.9440918 219.31567383 C309.9440918 222.31567383 309.9440918 222.31567383 309.9440918 222.31567383 Z M-303.0559082 223.31567383 C-302.0559082 225.31567383 -302.0559082 225.31567383 -302.0559082 225.31567383 Z M309.9440918 223.31567383 C310.9440918 225.31567383 310.9440918 225.31567383 310.9440918 225.31567383 Z M-311.0559082 253.31567383 C-310.0559082 257.31567383 -310.0559082 257.31567383 -310.0559082 257.31567383 Z M317.9440918 253.31567383 C318.9440918 257.31567383 318.9440918 257.31567383 318.9440918 257.31567383 Z M-311.0559082 383.31567383 C-310.0559082 387.31567383 -310.0559082 387.31567383 -310.0559082 387.31567383 Z M317.9440918 383.31567383 C318.9440918 387.31567383 318.9440918 387.31567383 318.9440918 387.31567383 Z M-303.0559082 415.31567383 C-302.0559082 417.31567383 -302.0559082 417.31567383 -302.0559082 417.31567383 Z M309.9440918 415.31567383 C310.9440918 417.31567383 310.9440918 417.31567383 310.9440918 417.31567383 Z M-302.0559082 418.31567383 C-301.0559082 421.31567383 -301.0559082 421.31567383 -301.0559082 421.31567383 Z M308.9440918 418.31567383 C309.9440918 421.31567383 309.9440918 421.31567383 309.9440918 421.31567383 Z M-301.0559082 421.31567383 C-300.0559082 423.31567383 -300.0559082 423.31567383 -300.0559082 423.31567383 Z M307.9440918 421.31567383 C308.9440918 423.31567383 308.9440918 423.31567383 308.9440918 423.31567383 Z M-300.0559082 424.31567383 C-299.0559082 426.31567383 -299.0559082 426.31567383 -299.0559082 426.31567383 Z M306.9440918 424.31567383 C307.9440918 426.31567383 307.9440918 426.31567383 307.9440918 426.31567383 Z M-293.0559082 442.31567383 C-292.0559082 444.31567383 -292.0559082 444.31567383 -292.0559082 444.31567383 Z M299.9440918 442.31567383 C300.9440918 444.31567383 300.9440918 444.31567383 300.9440918 444.31567383 Z " fill="#1486F0" transform="translate(316.055908203125,-0.315673828125)"/>
<path d="M0 0 C5.10706369 4.27704116 9.89586317 8.75131458 14.59934998 13.46563721 C15.33220327 14.19622494 16.06505656 14.92681268 16.82011753 15.67953944 C19.26062555 18.11374702 21.6975757 20.55148439 24.13452148 22.98925781 C25.88902706 24.74076965 27.64373712 26.49207668 29.39863586 28.24319458 C33.65959591 32.49625203 37.91817457 36.75167992 42.17546415 41.00841048 C45.63377716 44.46624744 49.09288059 47.92329171 52.55253792 51.37978363 C62.36354693 61.18199862 72.17246953 70.98629456 81.97870695 80.79328313 C82.50643434 81.32105048 83.03416173 81.84881783 83.57788086 82.39257812 C84.10625178 82.92098992 84.6346227 83.44940172 85.17900486 83.993826 C93.76203093 92.57725945 102.35004758 101.15568049 110.94031119 109.73187009 C119.76291976 118.54013776 128.58181791 127.35210518 137.39682633 136.167979 C142.34522052 141.11670569 147.29515475 146.06386937 152.24908257 151.00705719 C156.90018899 155.64814414 161.54615242 160.29433364 166.18859673 164.94408798 C167.89777384 166.65431657 169.60867892 168.36282016 171.32138443 170.06951523 C173.6487241 172.38921189 175.96989826 174.71490236 178.28953552 177.04229736 C178.97734948 177.72496776 179.66516344 178.40763815 180.37382025 179.11099553 C180.98954777 179.73132185 181.60527529 180.35164816 182.23966122 180.99077225 C182.77658846 181.52748212 183.3135157 182.06419199 183.86671346 182.6171658 C185 184 185 184 185 186 C185.66 186.33 186.32 186.66 187 187 C186.34 187 185.68 187 185 187 C184.87625 188.093125 184.7525 189.18625 184.625 190.3125 C184.21506007 193.68707798 183.61232019 196.98147267 182.9375 200.3125 C182.2067656 204.12914152 181.9629296 207.55898769 182.125 211.4375 C182.28985175 217.77513408 180.28407598 223.15725206 178 229 C177.34 229 176.68 229 176 229 C176.061875 230.423125 176.061875 230.423125 176.125 231.875 C176 235 176 235 174 237 C171.70366176 240.44450737 171.45983515 242.93812283 171 247 C170.34 247 169.68 247 169 247 C168.76539063 248.28777344 168.53078125 249.57554687 168.2890625 250.90234375 C167.10379865 256.23603109 164.9091339 260.75160518 162.375 265.5625 C161.95476562 266.38041016 161.53453125 267.19832031 161.1015625 268.04101562 C160.0768111 270.03229391 159.04297294 272.01822321 158 274 C157.01 273.01 156.02 272.02 155 271 C154.40574219 272.11375 153.81148437 273.2275 153.19921875 274.375 C147.41872692 285.07191994 141.12622457 295.1521213 134 305 C133.23816406 306.05832031 132.47632813 307.11664063 131.69140625 308.20703125 C126.13302319 315.76682853 120.14586794 322.91761885 114 330 C113.31808594 330.79535156 112.63617187 331.59070313 111.93359375 332.41015625 C100.99358377 344.89161577 89.16902758 356.8818615 76 367 C74.99710938 367.81984375 73.99421875 368.6396875 72.9609375 369.484375 C44.30490121 392.84420378 11.73593515 409.75495811 -23 422 C-24.07266113 422.37946777 -25.14532227 422.75893555 -26.25048828 423.14990234 C-27.31380371 423.51680176 -28.37711914 423.88370117 -29.47265625 424.26171875 C-30.4356665 424.59518311 -31.39867676 424.92864746 -32.39086914 425.2722168 C-35 426 -35 426 -39 426 C-39.33 426.66 -39.66 427.32 -40 428 C-45.46807238 430.2613274 -51.05141443 431.79492906 -57 431 C-63.55553233 428.10575496 -68.37884737 422.1371348 -73.21850586 417.03613281 C-74.75038401 415.49696931 -76.28670082 413.9622127 -77.82707214 412.43154907 C-81.98352653 408.27655957 -86.07559242 404.06302597 -90.15877223 399.83617496 C-94.44291195 395.42301444 -98.78443378 391.06706048 -103.12025452 386.70477295 C-111.31769643 378.44007727 -119.46326054 370.12617873 -127.5909248 361.79291415 C-137.75061851 351.3812422 -147.9756731 341.03447726 -158.20117188 330.6875 C-168.62697799 320.1341469 -179.04620996 309.57474086 -189.42478943 298.97491455 C-190.22149083 298.16170352 -191.01819224 297.3484925 -191.83903611 296.51063871 C-195.57592513 292.6961239 -199.3103399 288.87925394 -203.04003906 285.05770874 C-204.34375931 283.7259688 -205.64758082 282.39432798 -206.95152283 281.06280518 C-207.54108904 280.45668372 -208.13065526 279.85056227 -208.73808712 279.2260735 C-211.58134417 276.23880448 -211.58134417 276.23880448 -215 274 C-215 273.34 -215 272.68 -215 272 C-211.38508695 273.66373107 -208.23028914 275.83721818 -204.9375 278.0625 C-168.84446642 301.71516179 -124.17687551 307.08727379 -82.40283203 298.46386719 C-49.71948505 291.40411792 -21.03892266 275.01644371 -2 247 C1.28964493 241.82382517 4.18385542 236.44471749 7 231 C7.34804688 230.33516602 7.69609375 229.67033203 8.0546875 228.98535156 C14.18970649 217.12469925 18.21711707 204.78024946 22 192 C21.03194176 191.74435776 21.03194176 191.74435776 20.04432678 191.48355103 C12.69568272 189.51462045 5.43737644 187.31499975 -1.81640625 185.0234375 C-2.99468491 184.65272125 -4.17296356 184.282005 -5.38694763 183.90005493 C-7.85537347 183.12286782 -10.32347359 182.3446455 -12.79125977 181.56542969 C-15.321113 180.76685622 -17.85125465 179.96930432 -20.38208008 179.17382812 C-24.04827585 178.02138566 -27.71372137 176.86659046 -31.37890625 175.7109375 C-33.08343712 175.1750148 -33.08343712 175.1750148 -34.82240295 174.62826538 C-36.39060036 174.13237411 -36.39060036 174.13237411 -37.99047852 173.62646484 C-38.91216324 173.3357309 -39.83384796 173.04499695 -40.78346252 172.74545288 C-43 172 -43 172 -45 171 C-45.0928125 172.27617187 -45.185625 173.55234375 -45.28125 174.8671875 C-45.89156606 180.2901 -47.52339627 185.06071733 -49.5 190.125 C-49.85529785 191.04007324 -50.2105957 191.95514648 -50.57666016 192.89794922 C-58.44723998 212.52458499 -70.66265167 228.80905848 -90.30859375 237.8671875 C-91.19675781 238.24101562 -92.08492188 238.61484375 -93 239 C-93.89847656 239.39445313 -94.79695313 239.78890625 -95.72265625 240.1953125 C-112.91951912 246.41314155 -135.36613247 245.42252927 -152 238 C-152.90878906 237.62746094 -153.81757813 237.25492188 -154.75390625 236.87109375 C-172.92640488 228.7091108 -186.52945932 213.09161568 -193.72265625 194.75 C-202.2923115 171.73450162 -204.22994956 148.48038832 -204.25 124.125 C-204.25100708 123.270271 -204.25201416 122.41554199 -204.25305176 121.53491211 C-204.22622856 87.73452755 -199.65665157 54.08771191 -175 29 C-174.38640625 28.37351563 -173.7728125 27.74703125 -173.140625 27.1015625 C-156.7595557 11.6305526 -135.85334271 7.50706164 -114.0859375 7.78515625 C-98.37989203 8.25815912 -84.31166576 13.25738167 -72 23 C-71.16597656 23.64582031 -70.33195313 24.29164063 -69.47265625 24.95703125 C-57.63105465 34.79158173 -48.82512328 49.65755746 -47 65 C-45.30810547 64.54560547 -45.30810547 64.54560547 -43.58203125 64.08203125 C-33.30856101 61.34059608 -23.00724983 58.76730991 -12.65625 56.3359375 C-8.5055476 55.36061151 -4.361171 54.36148194 -0.21875 53.3515625 C0.91933105 53.07497803 2.05741211 52.79839355 3.22998047 52.51342773 C5.45879063 51.97121108 7.68700329 51.42653125 9.91455078 50.87915039 C10.92501465 50.63414795 11.93547852 50.38914551 12.9765625 50.13671875 C13.87455566 49.91717529 14.77254883 49.69763184 15.69775391 49.47143555 C18 49 18 49 21 49 C16.0227577 32.84281571 10.14862419 18.1268305 1.03125 3.8203125 C0 2 0 2 0 0 Z M180 215 C181 217 181 217 181 217 Z M179 218 C180 221 180 221 180 221 Z M178 221 C179 223 179 223 179 223 Z M177 224 C178 226 178 226 178 226 Z M170 242 C171 244 171 244 171 244 Z " fill="#0F64B3" transform="translate(446,200)"/>
<path d="M0 0 C1.18236992 -0.01475876 1.18236992 -0.01475876 2.3886261 -0.02981567 C44.67736367 -0.44823627 83.22423939 7.05815055 114.6640625 37.23828125 C115.44652344 37.96917969 116.22898437 38.70007813 117.03515625 39.453125 C130.62879311 52.49659781 139.30207381 69.70203038 145.6640625 87.23828125 C146.004375 88.16125 146.3446875 89.08421875 146.6953125 90.03515625 C147.96775134 93.64039963 148.6640625 96.37950325 148.6640625 100.23828125 C138.2752001 103.25233392 127.86538606 105.94544312 117.30273438 108.28076172 C108.96753679 110.13448403 100.69479577 112.20980459 92.43115234 114.35913086 C91.47418457 114.6041333 90.5172168 114.84913574 89.53125 115.1015625 C88.68675293 115.32110596 87.84225586 115.54064941 86.97216797 115.7668457 C84.6640625 116.23828125 84.6640625 116.23828125 80.6640625 116.23828125 C80.261875 114.85769531 80.261875 114.85769531 79.8515625 113.44921875 C73.88214753 93.82385227 63.54161818 78.87216301 45.6640625 68.23828125 C27.07671283 58.44389594 2.42151054 57.09450823 -17.59375 63.23828125 C-36.51268514 70.03657473 -53.29342945 82.76752692 -62.3046875 101.09765625 C-73.16959398 124.49095502 -75.55325587 148.70185972 -75.5234375 174.17578125 C-75.52316559 175.04444824 -75.52289368 175.91311523 -75.52261353 176.80810547 C-75.50449524 189.37089084 -75.32804119 201.80607857 -73.3359375 214.23828125 C-73.23410156 214.89505859 -73.13226563 215.55183594 -73.02734375 216.22851562 C-68.92396568 241.68465738 -59.29265881 265.48945041 -37.84765625 281.04296875 C-19.62392737 293.33277723 1.89147673 296.10070858 23.41162109 292.81933594 C28.04986638 291.78391899 32.31886544 290.17484438 36.6640625 288.23828125 C37.58445312 287.86574219 38.50484375 287.49320312 39.453125 287.109375 C56.07592597 279.72432256 68.17015541 264.04175294 74.77685547 247.44238281 C79.41907105 235.0440349 79.41907105 235.0440349 82.6640625 222.23828125 C90.67318969 224.35331023 98.58225051 226.71969611 106.48046875 229.21484375 C107.65874741 229.58556 108.83702606 229.95627625 110.05101013 230.33822632 C112.51943597 231.11541343 114.98753609 231.89363575 117.45532227 232.67285156 C119.9851755 233.47142503 122.51531715 234.26897693 125.04614258 235.06445312 C128.71233835 236.21689559 132.37778387 237.37169079 136.04296875 238.52734375 C137.74749962 239.06326645 137.74749962 239.06326645 139.48646545 239.61001587 C141.05466286 240.10590714 141.05466286 240.10590714 142.65454102 240.61181641 C143.57622574 240.90255035 144.49791046 241.1932843 145.44752502 241.49282837 C147.6640625 242.23828125 147.6640625 242.23828125 149.6640625 243.23828125 C146.33015799 265.83474517 134.52667505 290.04377604 119.6640625 307.23828125 C118.38789062 308.73681641 118.38789062 308.73681641 117.0859375 310.265625 C94.39155284 336.29103236 64.27381559 348.4064989 30.68481445 352.95629883 C28.91257916 353.20360241 27.1468403 353.49657027 25.3828125 353.796875 C1.24769425 356.66165269 -24.57686299 353.78937861 -47.3359375 345.23828125 C-48.83833984 344.68720703 -48.83833984 344.68720703 -50.37109375 344.125 C-69.22692327 336.74001159 -84.66998579 326.08945786 -99.3359375 312.23828125 C-100.14546875 311.49320312 -100.955 310.748125 -101.7890625 309.98046875 C-117.91141318 294.61860631 -128.717569 274.97257282 -136.3359375 254.23828125 C-136.60535156 253.51334473 -136.87476563 252.7884082 -137.15234375 252.04150391 C-142.1014092 238.44651674 -144.50491568 224.5594462 -146.3359375 210.23828125 C-146.42174072 209.5769368 -146.50754395 208.91559235 -146.59594727 208.23420715 C-147.28741558 202.54999282 -147.53942957 196.92637084 -147.609375 191.203125 C-147.62190308 190.25896225 -147.63443115 189.3147995 -147.64733887 188.34202576 C-148.23319179 133.48761764 -138.11146658 82.06805083 -98.8359375 41.36328125 C-72.80809865 16.20303703 -36.3487669 0.37369862 0 0 Z " fill="#FEFEFE" transform="translate(318.3359375,148.76171875)"/>
<path d="M0 0 C0.495 0.99 0.495 0.99 1 2 C-0.32 1.67 -1.64 1.34 -3 1 C-3 0.34 -3 -0.32 -3 -1 C-3.71285156 -1.26941406 -4.42570312 -1.53882813 -5.16015625 -1.81640625 C-8.04408791 -3.01837502 -10.69530086 -4.44279229 -13.4375 -5.9375 C-32.34375309 -15.50733181 -55.49351223 -14.76397317 -75.375 -8.75 C-85.60366641 -5.15662502 -93.27553813 0.51998313 -101 8 C-102.25296875 9.09054688 -102.25296875 9.09054688 -103.53125 10.203125 C-113.81741203 19.53686462 -120.30111725 32.43329473 -123 46 C-123.32744464 47.3347917 -123.65878733 48.66866127 -124 50 C-124.66 50 -125.32 50 -126 50 C-124.35630591 32.66476118 -114.98300671 18.19249983 -103 6 C-102.38640625 5.37351563 -101.7728125 4.74703125 -101.140625 4.1015625 C-75.15150251 -20.44371985 -27.59898215 -22.97022204 0 0 Z " fill="#0E3E74" transform="translate(374,223)"/>
<path d="M0 0 C0.66 0 1.32 0 2 0 C2.51783416 7.76751234 0.74454913 13.75880117 -2 21 C-2.66 21 -3.32 21 -4 21 C-3.95875 21.94875 -3.9175 22.8975 -3.875 23.875 C-4 27 -4 27 -6 29 C-8.29633824 32.44450737 -8.54016485 34.93812283 -9 39 C-9.66 39 -10.32 39 -11 39 C-11.165 40.175625 -11.33 41.35125 -11.5 42.5625 C-13.09235299 49.97763631 -17.2980188 56.46557271 -21 63 C-21.66 62.01 -22.32 61.02 -23 60 C-21.88330053 55.02203687 -19.41779964 50.38272929 -17.31811523 45.74926758 C-11.42326128 32.73192218 -6.45299354 19.57116827 -2 6 C-1 3 -1 3 0 0 Z M0 7 C1 9 1 9 1 9 Z M-1 10 C0 13 0 13 0 13 Z M-2 13 C-1 15 -1 15 -1 15 Z M-3 16 C-2 18 -2 18 -2 18 Z M-10 34 C-9 36 -9 36 -9 36 Z " fill="#0E84F0" transform="translate(626,408)"/>
<path d="M0 0 C26.3378972 3.95068458 54.31795852 22.33782203 76 37 C75.67 37.99 75.34 38.98 75 40 C74.195625 39.42894531 73.39125 38.85789063 72.5625 38.26953125 C50.25118825 22.75314642 25.47373681 11.28984644 0 2 C0 1.34 0 0.68 0 0 Z " fill="#1590FD" transform="translate(424,17)"/>
<path d="M0 0 C0.66 0.33 1.32 0.66 2 1 C1.45811035 1.71410034 1.45811035 1.71410034 0.90527344 2.44262695 C-7.60523846 13.7044051 -15.52949329 25.17293626 -22.89355469 37.21679688 C-25.31523558 41.11970006 -26.65663012 42.5141103 -31 44 C-29.42890002 39.63583339 -27.21078157 35.76160673 -24.8125 31.8125 C-24.41538818 31.15556152 -24.01827637 30.49862305 -23.60913086 29.82177734 C-14.37824988 14.68912494 -14.37824988 14.68912494 -11 13 C-10.67 12.01 -10.34 11.02 -10 10 C-9.34 9.67 -8.68 9.34 -8 9 C-7.67 8.01 -7.34 7.02 -7 6 C-6.34 5.67 -5.68 5.34 -5 5 C-4.67 4.01 -4.34 3.02 -4 2 C-2.0625 0.75 -2.0625 0.75 0 0 Z " fill="#0E94FB" transform="translate(70,119)"/>
<path d="M0 0 C5.68701095 1.48356808 5.68701095 1.48356808 7.25 4.0625 C7.4975 4.701875 7.745 5.34125 8 6 C8.66 6.33 9.32 6.66 10 7 C10.33 7.99 10.66 8.98 11 10 C11.66 10.33 12.32 10.66 13 11 C13.33 11.99 13.66 12.98 14 14 C14.55558594 14.52722656 15.11117187 15.05445313 15.68359375 15.59765625 C19.10239464 19.14329292 21.48110407 23.25975615 24.0625 27.4375 C24.59166016 28.28376953 25.12082031 29.13003906 25.66601562 30.00195312 C26.67850785 31.62422737 27.68610756 33.24956891 28.68798828 34.87841797 C29.74698107 36.590857 30.83575048 38.28486084 31.93359375 39.97265625 C32.46146484 40.97619141 32.46146484 40.97619141 33 42 C32.505 42.99 32.505 42.99 32 44 C31.67 43.01 31.34 42.02 31 41 C29.515 41.495 29.515 41.495 28 42 C27.68885254 41.49774902 27.37770508 40.99549805 27.05712891 40.47802734 C19.30218003 27.99327112 11.24027798 15.91120873 2.375 4.1875 C0 1 0 1 0 0 Z " fill="#0E90FB" transform="translate(568,119)"/>
<path d="M0 0 C1.32 0 2.64 0 4 0 C5.67370052 1.97268569 7.03806422 3.84388754 8.4375 6 C12.29060075 11.66412412 16.34622526 17.0749698 20.6875 22.375 C21.51725342 23.38820313 21.51725342 23.38820313 22.36376953 24.421875 C26.15541353 29.02414634 29.99918998 33.57728638 34 38 C33.34 38.66 32.68 39.32 32 40 C31.61328125 39.51789062 31.2265625 39.03578125 30.828125 38.5390625 C30.30734375 37.90742187 29.7865625 37.27578125 29.25 36.625 C28.73953125 35.99851562 28.2290625 35.37203125 27.703125 34.7265625 C25.91563592 32.91447494 24.26108965 32.11121927 22 31 C21.66666667 29.66666667 21.33333333 28.33333333 21 27 C20.34 26.67 19.68 26.34 19 26 C18.34 25.67 17.68 25.34 17 25 C16.63837971 23.67405895 16.30271961 22.34061543 16 21 C15.01 20.67 14.02 20.34 13 20 C12.67 19.01 12.34 18.02 12 17 C11.34 16.67 10.68 16.34 10 16 C9.67 15.01 9.34 14.02 9 13 C8.34 12.67 7.68 12.34 7 12 C6.67 11.01 6.34 10.02 6 9 C5.0409375 8.071875 5.0409375 8.071875 4.0625 7.125 C1.85208757 4.84760538 0.99430634 2.98291902 0 0 Z " fill="#0F8EFA" transform="translate(52,498)"/>
<path d="M0 0 C0.66 0.33 1.32 0.66 2 1 C-2.99326655 4.39967084 -8.12798598 7.01869562 -13.625 9.5 C-20.88276951 12.81014519 -27.76387936 16.62199063 -34.625 20.6875 C-35.54877441 21.2340625 -36.47254883 21.780625 -37.42431641 22.34375 C-42.45335182 25.35952028 -47.28248618 28.51679459 -52 32 C-52.66 31.67 -53.32 31.34 -54 31 C-50.34995269 26.82851736 -45.90386565 24.2926632 -41.1875 21.5 C-39.88679565 20.72474976 -39.88679565 20.72474976 -38.55981445 19.93383789 C-12.72264741 4.72267361 -12.72264741 4.72267361 0 0 Z " fill="#1690FD" transform="translate(193,25)"/>
<path d="M0 0 C4.75585249 2.56480934 9.42429809 5.24409058 14.03417969 8.0637207 C26.62756856 15.75170068 39.74565559 22.52615569 53 29 C52.67 29.66 52.34 30.32 52 31 C10.90800283 11.93019381 10.90800283 11.93019381 0 2 C0 1.34 0 0.68 0 0 Z " fill="#1690FD" transform="translate(141,584)"/>
<path d="M0 0 C9.86702729 4.14764421 15.13690327 16.82734793 19.24902344 26.1171875 C20.7846052 29.96712461 21.60436601 33.88540652 22 38 C23.546875 37.505 23.546875 37.505 25.125 37 C28.48426709 36.0284808 31.49106202 35.82883229 35 36 C34.505 36.99 34.505 36.99 34 38 C31.8203125 38.66796875 31.8203125 38.66796875 29.125 39.1875 C28.24070312 39.36667969 27.35640625 39.54585938 26.4453125 39.73046875 C24 40 24 40 21 39 C20.06445312 37.3293457 20.06445312 37.3293457 19.28125 35.17578125 C18.84232422 34.00305664 18.84232422 34.00305664 18.39453125 32.80664062 C18.09933594 31.98357422 17.80414063 31.16050781 17.5 30.3125 C16.90901115 28.70341027 16.31530994 27.09531386 15.71875 25.48828125 C15.43386719 24.7195166 15.14898437 23.95075195 14.85546875 23.15869141 C13.74264805 20.35059762 12.35825841 17.69581166 11 15 C11 14.34 11 13.68 11 13 C10.34 13 9.68 13 9 13 C9 12.01 9 11.02 9 10 C8.34 10 7.68 10 7 10 C5.61558 8.03501678 4.28796166 6.02951535 3 4 C2.01133494 2.65824027 1.0161846 1.32103998 0 0 Z " fill="#1E4E83" transform="translate(377,227)"/>
<path d="M0 0 C4.52615993 3.67832017 8.39424999 7.41086363 12 12 C11.34 12 10.68 12 10 12 C11.00056574 15.23259699 12.08502036 18.1667707 13.625 21.1875 C15 24 15 24 15 27 C15.66 27 16.32 27 17 27 C17 28.65 17 30.3 17 32 C17.66 32 18.32 32 19 32 C19.33 33.65 19.66 35.3 20 37 C18.515 36.505 18.515 36.505 17 36 C15.83479836 33.48545865 14.83368851 31.02997 13.875 28.4375 C10.83311905 20.59423513 7.07222754 13.44073245 2.8203125 6.1953125 C1 3 1 3 0 0 Z " fill="#0F447E" transform="translate(446,200)"/>
<path d="M0 0 C0.99 0 1.98 0 3 0 C5.24527584 2.53393884 6.85365878 5.37028869 8.48046875 8.328125 C8.92197266 9.12734375 9.36347656 9.9265625 9.81835938 10.75 C10.27017578 11.575 10.72199219 12.4 11.1875 13.25 C11.65091797 14.09046875 12.11433594 14.9309375 12.59179688 15.796875 C13.73057503 17.86311164 14.86654141 19.93084194 16 22 C15.01 22.99 14.02 23.98 13 25 C12.18071114 23.75443908 11.36984814 22.50333365 10.5625 21.25 C10.11003906 20.55390625 9.65757813 19.8578125 9.19140625 19.140625 C8 17 8 17 7.52734375 14.921875 C6.87237946 12.53489403 5.77119315 11.69208279 4 10 C2.83203125 8.02734375 2.83203125 8.02734375 1.8125 5.9375 C1.29623047 4.89916016 1.29623047 4.89916016 0.76953125 3.83984375 C0 2 0 2 0 0 Z " fill="#0D96F8" transform="translate(31,462)"/>
<path d="M0 0 C2.31796542 3.47694813 2.12822815 4.08699763 1.625 8.0625 C1.08752306 13.35408844 0.875 18.56189871 0.875 23.875 C0.875 24.63893066 0.875 25.40286133 0.875 26.18994141 C0.9161326 32.26085591 1.34081782 38.23776932 1.9765625 44.27734375 C2 47 2 47 0 50 C-1.01342087 44.96862201 -1.14562903 40.16451334 -1.1328125 35.05859375 C-1.13376923 34.21329605 -1.13472595 33.36799835 -1.13571167 32.49708557 C-1.13638947 30.71786423 -1.13456318 28.93864036 -1.13037109 27.15942383 C-1.12501049 24.44281447 -1.1303331 21.72636993 -1.13671875 19.00976562 C-1.13605803 17.2760413 -1.13477699 15.54231708 -1.1328125 13.80859375 C-1.13483673 13.00014511 -1.13686096 12.19169647 -1.13894653 11.35874939 C-1.12270941 7.43841809 -0.9655963 3.82834482 0 0 Z " fill="#0A3B72" transform="translate(243,299)"/>
<path d="M0 0 C5.04893689 1.56926417 8.60747235 4.63794848 12.625 7.9375 C13.29273437 8.47568359 13.96046875 9.01386719 14.6484375 9.56835938 C17.56974181 11.93753717 20.37324905 14.30302305 23 17 C19.83245565 16.37641185 17.62021505 15.27813869 14.9375 13.5 C12.54341042 11.91925755 10.75440404 10.91813468 8 10 C7.67 9.01 7.34 8.02 7 7 C6.360625 6.855625 5.72125 6.71125 5.0625 6.5625 C3 6 3 6 1.8125 4.0625 C1.544375 3.381875 1.27625 2.70125 1 2 C0.67 1.34 0.34 0.68 0 0 Z " fill="#0F89F9" transform="translate(113,564)"/>
<path d="M0 0 C1.32 0 2.64 0 4 0 C6.64 5.61 9.28 11.22 12 17 C10.68 17 9.36 17 8 17 C5.52278975 14.52278975 4.73451576 12.18584694 3.4375 8.9375 C2.16203315 5.1982703 2.16203315 5.1982703 0 2 C0 1.34 0 0.68 0 0 Z " fill="#0C89FA" transform="translate(602,170)"/>
<path d="M0 0 C3.1398451 1.56992255 3.42143346 4.22447002 4.625 7.4375 C5.07101562 8.61183594 5.51703125 9.78617187 5.9765625 10.99609375 C7 14 7 14 7 16 C7.66 16 8.32 16 9 16 C11 20 13 24 15 28 C7.60527467 21.47524236 2.91473083 12.34428414 0 3 C0 2.01 0 1.02 0 0 Z " fill="#12457E" transform="translate(251,388)"/>
<path d="M0 0 C7.26 2.64 14.52 5.28 22 8 C22 8.66 22 9.32 22 10 C16.59491957 9.38696372 12.07560955 7.55619307 7.125 5.4375 C6.34125 5.10814453 5.5575 4.77878906 4.75 4.43945312 C2.83091244 3.63203214 0.9151135 2.81680231 -1 2 C-0.67 1.34 -0.34 0.68 0 0 Z " fill="#1591FD" transform="translate(197,614)"/>
<path d="M0 0 C4.5094282 2.07523437 8.55849743 4.91060099 12.69140625 7.63476562 C16.35645614 10.02380573 20.03981328 12.11679194 24 14 C20.43446357 15.18851214 19.13142105 14.48310768 15.8203125 12.9453125 C13.04421523 11.50364825 10.54523833 9.81802738 8 8 C7.28972656 7.49855469 6.57945312 6.99710937 5.84765625 6.48046875 C1.54567928 3.37306535 1.54567928 3.37306535 0 2 C0 1.34 0 0.68 0 0 Z " fill="#124E8D" transform="translate(231,472)"/>
<path d="M0 0 C-2.09959234 4.19918469 -8.78819882 5.40333482 -13 7 C-15.32729615 7.76159027 -17.62326818 8.40581705 -20 9 C-20 8.34 -20 7.68 -20 7 C-17.23174812 5.82685974 -14.46071514 4.66129785 -11.6875 3.5 C-10.50897461 2.99919922 -10.50897461 2.99919922 -9.30664062 2.48828125 C-8.54931641 2.17246094 -7.79199219 1.85664063 -7.01171875 1.53125 C-6.31522217 1.23798828 -5.61872559 0.94472656 -4.90112305 0.64257812 C-3 0 -3 0 0 0 Z " fill="#1593FD" transform="translate(216,17)"/>
<path d="M0 0 C3.7532578 1.50298243 5.60207495 3.65045084 8.0625 6.8125 C8.73410156 7.66457031 9.40570313 8.51664063 10.09765625 9.39453125 C15.10162031 16.24800974 15.10162031 16.24800974 14.6875 19.3125 C14.460625 19.869375 14.23375 20.42625 14 21 C11 15.25 11 15.25 11 13 C10.34 13 9.68 13 9 13 C9 12.01 9 11.02 9 10 C8.34 10 7.68 10 7 10 C5.61558 8.03501678 4.28796166 6.02951535 3 4 C2.01133494 2.65824027 1.0161846 1.32103998 0 0 Z " fill="#154379" transform="translate(377,227)"/>
<path d="M0 0 C0 0.66 0 1.32 0 2 C-0.556875 2.10957031 -1.11375 2.21914062 -1.6875 2.33203125 C-7.03341031 3.44275248 -11.93063816 4.97225526 -17 7 C-17.66 6.34 -18.32 5.68 -19 5 C-16.58570231 4.15919981 -14.16896007 3.32718598 -11.75 2.5 C-10.72712891 2.14228516 -10.72712891 2.14228516 -9.68359375 1.77734375 C-6.23586997 0.60578713 -3.68297096 0 0 0 Z " fill="#1A497C" transform="translate(312,209)"/>
<path d="M0 0 C0.66 0.33 1.32 0.66 2 1 C1.68853528 2.89600369 1.37578283 4.79179587 1.0625 6.6875 C0.88847656 7.74324219 0.71445313 8.79898437 0.53515625 9.88671875 C0.06832879 12.60249604 -0.44422616 15.30124235 -1 18 C-1.33 18 -1.66 18 -2 18 C-2.3690205 5.33029613 -2.3690205 5.33029613 0 0 Z " fill="#18467A" transform="translate(246,279)"/>
<path d="M0 0 C0 0.66 0 1.32 0 2 C-2.07710746 2.72638729 -4.16200312 3.43053408 -6.25 4.125 C-7.41015625 4.51945312 -8.5703125 4.91390625 -9.765625 5.3203125 C-13 6 -13 6 -15.421875 5.1171875 C-15.94265625 4.74851562 -16.4634375 4.37984375 -17 4 C-14.91891315 3.32635339 -12.8350329 2.66133202 -10.75 2 C-9.58984375 1.62875 -8.4296875 1.2575 -7.234375 0.875 C-4 0 -4 0 0 0 Z " fill="#1492FC" transform="translate(233,12)"/>
<path d="M0 0 C2 1 2 1 2.73828125 2.70703125 C4.3038674 8.44751381 4.3038674 8.44751381 2.625 11.5 C2.08875 11.995 1.5525 12.49 1 13 C-1.48887372 8.31506124 -0.85687773 5.0555786 0 0 Z M0 5 C1 8 1 8 1 8 Z M1 8 C2 10 2 10 2 10 Z " fill="#0E7BEA" transform="translate(14,413)"/>
<path d="M0 0 C2.40337243 3.60505865 2.13664135 4.90246946 1.75 9.125 C1.66234375 10.20007813 1.5746875 11.27515625 1.484375 12.3828125 C1.32453125 13.24648438 1.1646875 14.11015625 1 15 C0.01 15.495 0.01 15.495 -1 16 C-1.02725341 14.2709226 -1.04650987 12.54171824 -1.0625 10.8125 C-1.07410156 9.84957031 -1.08570313 8.88664062 -1.09765625 7.89453125 C-1.00486622 5.14423487 -0.62111685 2.67520409 0 0 Z " fill="#144579" transform="translate(243,299)"/>
<path d="M0 0 C4.875 4.625 4.875 4.625 6 8 C5.01 8.66 4.02 9.32 3 10 C-1.06153846 4.58461538 -1.06153846 4.58461538 -0.75 1.625 C-0.5025 1.08875 -0.255 0.5525 0 0 Z " fill="#0D9BFC" transform="translate(48,488)"/>
<path d="M0 0 C0.99 0.33 1.98 0.66 3 1 C-0.96 4.96 -4.92 8.92 -9 13 C-9.66 12.67 -10.32 12.34 -11 12 C-10.37351562 11.38511719 -9.74703125 10.77023437 -9.1015625 10.13671875 C-8.28429687 9.32847656 -7.46703125 8.52023437 -6.625 7.6875 C-5.40683594 6.48673828 -5.40683594 6.48673828 -4.1640625 5.26171875 C-1.87395158 2.99990063 -1.87395158 2.99990063 0 0 Z " fill="#0B68C5" transform="translate(436,457)"/>
<path d="M0 0 C0.33 0.99 0.66 1.98 1 3 C0.01 4.485 0.01 4.485 -1 6 C-1.68177416 7.32567199 -2.35191436 8.65753688 -3 10 C-4.32 9.67 -5.64 9.34 -7 9 C-6.02180976 7.68677212 -5.0424189 6.37443848 -4.0625 5.0625 C-3.51722656 4.33160156 -2.97195313 3.60070312 -2.41015625 2.84765625 C-1 1 -1 1 0 0 Z " fill="#0F77F9" transform="translate(561,528)"/>
<path d="M0 0 C1.39607277 3.74360914 0.57200275 6.02321534 -0.8125 9.6875 C-1.16957031 10.66074219 -1.52664063 11.63398438 -1.89453125 12.63671875 C-3 15 -3 15 -5 16 C-4.39363767 10.23955788 -2.24341721 5.27985631 0 0 Z " fill="#0C54A0" transform="translate(397,381)"/>
<path d="M0 0 C0.99 0.495 0.99 0.495 2 1 C2.36526253 3.32854865 2.69350684 5.66298962 3 8 C3.62256028 10.01416562 4.27566653 12.02015519 5 14 C4.01 14.495 4.01 14.495 3 15 C1.094753 9.89665983 -0.42589023 5.53657294 0 0 Z " fill="#0B3D75" transform="translate(247,372)"/>
<path d="M0 0 C0.99 0.33 1.98 0.66 3 1 C0.03 5.95 0.03 5.95 -3 11 C-4 7 -4 7 -3 4 C-2.03126968 2.64377755 -1.03565785 1.30582947 0 0 Z " fill="#138FFB" transform="translate(41,161)"/>
<path d="M0 0 C4.81033104 2.54664585 8.32442148 4.99027798 12 9 C8.61638481 8.38271885 6.47997439 7.13020282 3.75 5.0625 C3.04359375 4.53785156 2.3371875 4.01320313 1.609375 3.47265625 C1.07828125 2.98667969 0.5471875 2.50070312 0 2 C0 1.34 0 0.68 0 0 Z " fill="#168FFD" transform="translate(124,572)"/>
<path d="M0 0 C2.61500768 2.36595933 4.38999603 4.86049226 6 8 C5.67 8.66 5.34 9.32 5 10 C4.67 9.01 4.34 8.02 4 7 C3.01 7.33 2.02 7.66 1 8 C-1.125 3.375 -1.125 3.375 0 0 Z " fill="#0AA0FD" transform="translate(595,153)"/>
<path d="M0 0 C0.99 0.33 1.98 0.66 3 1 C-2.445 4.96 -2.445 4.96 -8 9 C-8 8.01 -8 7.02 -8 6 C-6.35546875 4.359375 -6.35546875 4.359375 -4.1875 2.75 C-3.47980469 2.20859375 -2.77210938 1.6671875 -2.04296875 1.109375 C-1.36878906 0.74328125 -0.69460937 0.3771875 0 0 Z " fill="#168FFE" transform="translate(133,59)"/>
<path d="M0 0 C3.09305422 0.60903059 5.19639762 1.59868803 7.75 3.4375 C8.36359375 3.86933594 8.9771875 4.30117188 9.609375 4.74609375 C10.29773438 5.36677734 10.29773438 5.36677734 11 6 C11 6.66 11 7.32 11 8 C6.99698968 6.23867546 3.3971023 3.73867517 0 1 C0 0.67 0 0.34 0 0 Z " fill="#168EFD" transform="translate(504,59)"/>
<path d="M0 0 C0.66 0.99 1.32 1.98 2 3 C0.68221547 5.63556905 -1.14219898 7.72269553 -3 10 C-3.66 9.67 -4.32 9.34 -5 9 C-3.35 6.03 -1.7 3.06 0 0 Z " fill="#128DF9" transform="translate(601,470)"/>
<path d="M0 0 C-0.33 0.66 -0.66 1.32 -1 2 C-3.21484375 2.66796875 -3.21484375 2.66796875 -5.9375 3.1875 C-6.83339844 3.36667969 -7.72929687 3.54585938 -8.65234375 3.73046875 C-11 4 -11 4 -13 3 C-8.37802694 0.78145293 -5.23175837 -0.38281159 0 0 Z " fill="#0D447F" transform="translate(412,263)"/>
<path d="M0 0 C3.01217112 0.64449607 5.51655836 1.65022182 8.25 3.0625 C8.95640625 3.42472656 9.6628125 3.78695313 10.390625 4.16015625 C10.92171875 4.43730469 11.4528125 4.71445312 12 5 C7.80761095 6.39746302 5.89298197 4.84031875 2 3 C1.34 2.67 0.68 2.34 0 2 C0 1.34 0 0.68 0 0 Z " fill="#1C5797" transform="translate(243,481)"/>
<path d="M0 0 C0.33 0.99 0.66 1.98 1 3 C-0.14453125 4.82421875 -0.14453125 4.82421875 -1.8125 6.6875 C-2.35519531 7.31011719 -2.89789063 7.93273437 -3.45703125 8.57421875 C-5 10 -5 10 -7 10 C-5.33248852 6.05860922 -2.77289351 3.2107188 0 0 Z " fill="#1492FC" transform="translate(84,102)"/>
<path d="M0 0 C0.66 0.33 1.32 0.66 2 1 C1.25 5.75 1.25 5.75 -1 8 C-1.66 6.68 -2.32 5.36 -3 4 C-2.01 2.68 -1.02 1.36 0 0 Z " fill="#0B89FD" transform="translate(57,133)"/>
<path d="M0 0 C1.5625 1.6875 1.5625 1.6875 3 4 C2.6875 6.75 2.6875 6.75 2 9 C1.34 8.67 0.68 8.34 0 8 C-1.27536232 2.55072464 -1.27536232 2.55072464 0 0 Z M0 3 C1 5 1 5 1 5 Z " fill="#0F7EEC" transform="translate(15,214)"/>
<path d="M0 0 C2.33333333 2.33333333 4.66666667 4.66666667 7 7 C6.67 7.99 6.34 8.98 6 10 C4.99106869 8.90398831 3.99311775 7.79786082 3 6.6875 C2.1646875 5.76517578 2.1646875 5.76517578 1.3125 4.82421875 C0 3 0 3 0 0 Z " fill="#1494FD" transform="translate(555,102)"/>
<path d="M0 0 C0.66 0.66 1.32 1.32 2 2 C1.625 5.125 1.625 5.125 1 8 C0.34 8 -0.32 8 -1 8 C-1.93065133 5.39417629 -2.14917407 4.35801776 -1.0625 1.75 C-0.711875 1.1725 -0.36125 0.595 0 0 Z M0 3 C1 5 1 5 1 5 Z " fill="#0F7DEB" transform="translate(624,214)"/>
<path d="M0 0 C2.64 0 5.28 0 8 0 C8 0.33 8 0.66 8 1 C5.36 1 2.72 1 0 1 C0 0.67 0 0.34 0 0 Z " fill="#005FFF" transform="translate(357,639)"/>
<path d="M0 0 C2.64 0 5.28 0 8 0 C8 0.33 8 0.66 8 1 C5.36 1 2.72 1 0 1 C0 0.67 0 0.34 0 0 Z " fill="#005FFF" transform="translate(275,639)"/>
<path d="M0 0 C0.33 0 0.66 0 1 0 C1 2.64 1 5.28 1 8 C0.67 8 0.34 8 0 8 C0 5.36 0 2.72 0 0 Z " fill="#005FCF" transform="translate(0,357)"/>
<path d="M0 0 C0.33 0 0.66 0 1 0 C1 2.64 1 5.28 1 8 C0.67 8 0.34 8 0 8 C0 5.36 0 2.72 0 0 Z " fill="#005FCF" transform="translate(0,275)"/>
<path d="M0 0 C2.64 0 5.28 0 8 0 C8 0.33 8 0.66 8 1 C5.36 1 2.72 1 0 1 C0 0.67 0 0.34 0 0 Z " fill="#005FFF" transform="translate(357,0)"/>
<path d="M0 0 C2.64 0 5.28 0 8 0 C8 0.33 8 0.66 8 1 C5.36 1 2.72 1 0 1 C0 0.67 0 0.34 0 0 Z " fill="#005FFF" transform="translate(275,0)"/>
<path d="M0 0 C2.31 0 4.62 0 7 0 C7 0.33 7 0.66 7 1 C4.69 1 2.38 1 0 1 C0 0.67 0 0.34 0 0 Z " fill="#00A0F4" transform="translate(365,638)"/>
<path d="M0 0 C2.31 0 4.62 0 7 0 C7 0.33 7 0.66 7 1 C4.69 1 2.38 1 0 1 C0 0.67 0 0.34 0 0 Z " fill="#00A0F4" transform="translate(268,638)"/>
<path d="M0 0 C0.33 0 0.66 0 1 0 C1 2.31 1 4.62 1 7 C0.67 7 0.34 7 0 7 C0 4.69 0 2.38 0 0 Z " fill="#00A8FB" transform="translate(638,365)"/>
<path d="M0 0 C0.33 0 0.66 0 1 0 C1 2.31 1 4.62 1 7 C0.67 7 0.34 7 0 7 C0 4.69 0 2.38 0 0 Z " fill="#00A8FB" transform="translate(1,365)"/>
<path d="M0 0 C0.33 0 0.66 0 1 0 C1 2.31 1 4.62 1 7 C0.67 7 0.34 7 0 7 C0 4.69 0 2.38 0 0 Z " fill="#006DEC" transform="translate(639,358)"/>
<path d="M0 0 C0.33 0 0.66 0 1 0 C1 2.31 1 4.62 1 7 C0.67 7 0.34 7 0 7 C0 4.69 0 2.38 0 0 Z " fill="#006DEC" transform="translate(639,275)"/>
<path d="M0 0 C0.33 0 0.66 0 1 0 C1 2.31 1 4.62 1 7 C0.67 7 0.34 7 0 7 C0 4.69 0 2.38 0 0 Z " fill="#00A8FB" transform="translate(638,268)"/>
<path d="M0 0 C0.33 0 0.66 0 1 0 C1 2.31 1 4.62 1 7 C0.67 7 0.34 7 0 7 C0 4.69 0 2.38 0 0 Z " fill="#00A8FB" transform="translate(1,268)"/>
<path d="M0 0 C2.31 0 4.62 0 7 0 C7 0.33 7 0.66 7 1 C4.69 1 2.38 1 0 1 C0 0.67 0 0.34 0 0 Z " fill="#00A0F4" transform="translate(365,1)"/>
<path d="M0 0 C2.31 0 4.62 0 7 0 C7 0.33 7 0.66 7 1 C4.69 1 2.38 1 0 1 C0 0.67 0 0.34 0 0 Z " fill="#00A0F4" transform="translate(268,1)"/>
<path d="M0 0 C1.65 0 3.3 0 5 0 C5 0.33 5 0.66 5 1 C3.35 1 1.7 1 0 1 C0 0.67 0 0.34 0 0 Z " fill="#0099FF" transform="translate(372,637)"/>
<path d="M0 0 C1.65 0 3.3 0 5 0 C5 0.33 5 0.66 5 1 C3.35 1 1.7 1 0 1 C0 0.67 0 0.34 0 0 Z " fill="#0099FF" transform="translate(263,637)"/>
<path d="M0 0 C1.65 0 3.3 0 5 0 C5 0.33 5 0.66 5 1 C3.35 1 1.7 1 0 1 C0 0.67 0 0.34 0 0 Z " fill="#0094FF" transform="translate(378,636)"/>
<path d="M0 0 C1.65 0 3.3 0 5 0 C5 0.33 5 0.66 5 1 C3.35 1 1.7 1 0 1 C0 0.67 0 0.34 0 0 Z " fill="#0094FF" transform="translate(257,636)"/>
<path d="M0 0 C1.65 0 3.3 0 5 0 C5 0.33 5 0.66 5 1 C3.35 1 1.7 1 0 1 C0 0.67 0 0.34 0 0 Z " fill="#007DF2" transform="translate(383,635)"/>
<path d="M0 0 C1.65 0 3.3 0 5 0 C5 0.33 5 0.66 5 1 C3.35 1 1.7 1 0 1 C0 0.67 0 0.34 0 0 Z " fill="#007DF2" transform="translate(252,635)"/>
<path d="M0 0 C0.33 0 0.66 0 1 0 C1 1.65 1 3.3 1 5 C0.67 5 0.34 5 0 5 C0 3.35 0 1.7 0 0 Z " fill="#0092FF" transform="translate(636,378)"/>
<path d="M0 0 C0.33 0 0.66 0 1 0 C1 1.65 1 3.3 1 5 C0.67 5 0.34 5 0 5 C0 3.35 0 1.7 0 0 Z " fill="#0092FF" transform="translate(3,378)"/>
<path d="M0 0 C0.33 0 0.66 0 1 0 C1 1.65 1 3.3 1 5 C0.67 5 0.34 5 0 5 C0 3.35 0 1.7 0 0 Z " fill="#00AFE8" transform="translate(637,372)"/>
<path d="M0 0 C0.33 0 0.66 0 1 0 C1 1.65 1 3.3 1 5 C0.67 5 0.34 5 0 5 C0 3.35 0 1.7 0 0 Z " fill="#00AFE8" transform="translate(2,372)"/>
<path d="M0 0 C0.33 0 0.66 0 1 0 C1 1.65 1 3.3 1 5 C0.67 5 0.34 5 0 5 C0 3.35 0 1.7 0 0 Z " fill="#00AFE8" transform="translate(637,263)"/>
<path d="M0 0 C0.33 0 0.66 0 1 0 C1 1.65 1 3.3 1 5 C0.67 5 0.34 5 0 5 C0 3.35 0 1.7 0 0 Z " fill="#00AFE8" transform="translate(2,263)"/>
<path d="M0 0 C0.33 0 0.66 0 1 0 C1 1.65 1 3.3 1 5 C0.67 5 0.34 5 0 5 C0 3.35 0 1.7 0 0 Z " fill="#0092FF" transform="translate(636,257)"/>
<path d="M0 0 C0.33 0 0.66 0 1 0 C1 1.65 1 3.3 1 5 C0.67 5 0.34 5 0 5 C0 3.35 0 1.7 0 0 Z " fill="#0092FF" transform="translate(3,257)"/>
<path d="M0 0 C1.65 0 3.3 0 5 0 C5 0.33 5 0.66 5 1 C3.35 1 1.7 1 0 1 C0 0.67 0 0.34 0 0 Z " fill="#007DF2" transform="translate(383,4)"/>
<path d="M0 0 C1.65 0 3.3 0 5 0 C5 0.33 5 0.66 5 1 C3.35 1 1.7 1 0 1 C0 0.67 0 0.34 0 0 Z " fill="#007DF2" transform="translate(252,4)"/>
<path d="M0 0 C1.65 0 3.3 0 5 0 C5 0.33 5 0.66 5 1 C3.35 1 1.7 1 0 1 C0 0.67 0 0.34 0 0 Z " fill="#0094FF" transform="translate(378,3)"/>
<path d="M0 0 C1.65 0 3.3 0 5 0 C5 0.33 5 0.66 5 1 C3.35 1 1.7 1 0 1 C0 0.67 0 0.34 0 0 Z " fill="#0094FF" transform="translate(257,3)"/>
<path d="M0 0 C1.65 0 3.3 0 5 0 C5 0.33 5 0.66 5 1 C3.35 1 1.7 1 0 1 C0 0.67 0 0.34 0 0 Z " fill="#0099F4" transform="translate(372,2)"/>
<path d="M0 0 C1.65 0 3.3 0 5 0 C5 0.33 5 0.66 5 1 C3.35 1 1.7 1 0 1 C0 0.67 0 0.34 0 0 Z " fill="#0099F4" transform="translate(263,2)"/>
<path d="M0 0 C4 1 4 1 4 1 Z " fill="#00B2F1" transform="translate(388,634)"/>
<path d="M0 0 C4 1 4 1 4 1 Z " fill="#00B2FF" transform="translate(248,634)"/>
<path d="M0 0 C4 1 4 1 4 1 Z " fill="#00BEFF" transform="translate(392,633)"/>
<path d="M0 0 C4 1 4 1 4 1 Z " fill="#00BEFF" transform="translate(244,633)"/>
<path d="M0 0 C4 1 4 1 4 1 Z " fill="#0084E3" transform="translate(396,632)"/>
<path d="M0 0 C4 1 4 1 4 1 Z " fill="#00BFE3" transform="translate(240,632)"/>
<path d="M0 0 C4 1 4 1 4 1 Z " fill="#009BFF" transform="translate(400,631)"/>
<path d="M0 0 C4 1 4 1 4 1 Z " fill="#00D8FF" transform="translate(236,631)"/>
<path d="M0 0 C4 1 4 1 4 1 Z " fill="#0073FF" transform="translate(404,630)"/>
<path d="M0 0 C4 1 4 1 4 1 Z " fill="#0073FF" transform="translate(232,630)"/>
<path d="M0 0 C4 1 4 1 4 1 Z " fill="#0050FF" transform="translate(414,627)"/>
<path d="M0 0 C4 1 4 1 4 1 Z " fill="#0050FF" transform="translate(222,627)"/>
<path d="M0 0 C1 4 1 4 1 4 Z " fill="#0073BF" transform="translate(630,404)"/>
<path d="M0 0 C1 4 1 4 1 4 Z " fill="#0073BF" transform="translate(9,404)"/>
<path d="M0 0 C1 4 1 4 1 4 Z " fill="#00BFE2" transform="translate(631,400)"/>
<path d="M0 0 C1 4 1 4 1 4 Z " fill="#00BFE2" transform="translate(8,400)"/>
<path d="M0 0 C1 4 1 4 1 4 Z " fill="#00C0E5" transform="translate(632,396)"/>
<path d="M0 0 C1 4 1 4 1 4 Z " fill="#00C0E5" transform="translate(7,396)"/>
<path d="M0 0 C1 4 1 4 1 4 Z " fill="#00C1FF" transform="translate(633,392)"/>
<path d="M0 0 C1 4 1 4 1 4 Z " fill="#00BEFF" transform="translate(6,392)"/>
<path d="M0 0 C1 4 1 4 1 4 Z " fill="#00BEFF" transform="translate(633,244)"/>
<path d="M0 0 C1 4 1 4 1 4 Z " fill="#00BEFF" transform="translate(6,244)"/>
<path d="M0 0 C1 4 1 4 1 4 Z " fill="#00C0E5" transform="translate(632,240)"/>
<path d="M0 0 C1 4 1 4 1 4 Z " fill="#00C0E5" transform="translate(7,240)"/>
<path d="M0 0 C1 4 1 4 1 4 Z " fill="#00BFE2" transform="translate(631,236)"/>
<path d="M0 0 C1 4 1 4 1 4 Z " fill="#00BFE2" transform="translate(8,236)"/>
<path d="M0 0 C1 4 1 4 1 4 Z " fill="#0073BF" transform="translate(630,232)"/>
<path d="M0 0 C1 4 1 4 1 4 Z " fill="#0073BF" transform="translate(9,232)"/>
<path d="M0 0 C4 1 4 1 4 1 Z " fill="#0050FF" transform="translate(414,12)"/>
<path d="M0 0 C4 1 4 1 4 1 Z " fill="#0050FF" transform="translate(222,12)"/>
<path d="M0 0 C4 1 4 1 4 1 Z " fill="#0073FF" transform="translate(404,9)"/>
<path d="M0 0 C4 1 4 1 4 1 Z " fill="#0073FF" transform="translate(232,9)"/>
<path d="M0 0 C4 1 4 1 4 1 Z " fill="#00D8FF" transform="translate(400,8)"/>
<path d="M0 0 C4 1 4 1 4 1 Z " fill="#00D8FF" transform="translate(236,8)"/>
<path d="M0 0 C4 1 4 1 4 1 Z " fill="#00BFE3" transform="translate(396,7)"/>
<path d="M0 0 C4 1 4 1 4 1 Z " fill="#00BFE3" transform="translate(240,7)"/>
<path d="M0 0 C4 1 4 1 4 1 Z " fill="#00BEFF" transform="translate(392,6)"/>
<path d="M0 0 C4 1 4 1 4 1 Z " fill="#00BEFF" transform="translate(244,6)"/>
<path d="M0 0 C4 1 4 1 4 1 Z " fill="#00B2FF" transform="translate(388,5)"/>
<path d="M0 0 C4 1 4 1 4 1 Z " fill="#00B2FF" transform="translate(248,5)"/>
<path d="M0 0 C3 1 3 1 3 1 Z " fill="#00DFFF" transform="translate(408,629)"/>
<path d="M0 0 C3 1 3 1 3 1 Z " fill="#00DFFF" transform="translate(229,629)"/>
<path d="M0 0 C3 1 3 1 3 1 Z " fill="#009AFF" transform="translate(411,628)"/>
<path d="M0 0 C3 1 3 1 3 1 Z " fill="#009AFF" transform="translate(226,628)"/>
<path d="M0 0 C3 1 3 1 3 1 Z " fill="#0057F3" transform="translate(418,626)"/>
<path d="M0 0 C3 1 3 1 3 1 Z " fill="#0057FF" transform="translate(219,626)"/>
<path d="M0 0 C3 1 3 1 3 1 Z " fill="#0058F4" transform="translate(421,625)"/>
<path d="M0 0 C3 1 3 1 3 1 Z " fill="#0058F4" transform="translate(216,625)"/>
<path d="M0 0 C3 1 3 1 3 1 Z " fill="#00699E" transform="translate(424,624)"/>
<path d="M0 0 C3 1 3 1 3 1 Z " fill="#0069FF" transform="translate(213,624)"/>
<path d="M0 0 C3 1 3 1 3 1 Z " fill="#00DAF6" transform="translate(429,622)"/>
<path d="M0 0 C3 1 3 1 3 1 Z " fill="#00DAF6" transform="translate(208,622)"/>
<path d="M0 0 C3 1 3 1 3 1 Z " fill="#0067FF" transform="translate(432,621)"/>
<path d="M0 0 C3 1 3 1 3 1 Z " fill="#008AFF" transform="translate(205,621)"/>
<path d="M0 0 C3 1 3 1 3 1 Z " fill="#007AFF" transform="translate(437,619)"/>
<path d="M0 0 C3 1 3 1 3 1 Z " fill="#007AFF" transform="translate(200,619)"/>
<path d="M0 0 C3 1 3 1 3 1 Z " fill="#007AFF" transform="translate(442,617)"/>
<path d="M0 0 C3 1 3 1 3 1 Z " fill="#007AFF" transform="translate(195,617)"/>
<path d="" fill="#0068FF" transform="translate(0,0)"/>
<path d="" fill="#0068FF" transform="translate(0,0)"/>
<path d="" fill="#009BDA" transform="translate(0,0)"/>
<path d="" fill="#009BDA" transform="translate(0,0)"/>
<path d="" fill="#0097FF" transform="translate(0,0)"/>
<path d="" fill="#0097FF" transform="translate(0,0)"/>
<path d="" fill="#00BBEF" transform="translate(0,0)"/>
<path d="" fill="#00BBF6" transform="translate(0,0)"/>
<path d="" fill="#00BBF6" transform="translate(0,0)"/>
<path d="" fill="#00BBF6" transform="translate(0,0)"/>
<path d="" fill="#0097FF" transform="translate(0,0)"/>
<path d="" fill="#0097FF" transform="translate(0,0)"/>
<path d="" fill="#009BDA" transform="translate(0,0)"/>
<path d="" fill="#009BDA" transform="translate(0,0)"/>
<path d="" fill="#0068FF" transform="translate(0,0)"/>
<path d="" fill="#0068FF" transform="translate(0,0)"/>
<path d="M0 0 C3 1 3 1 3 1 Z " fill="#007AFF" transform="translate(442,22)"/>
<path d="M0 0 C3 1 3 1 3 1 Z " fill="#007AFF" transform="translate(195,22)"/>
<path d="M0 0 C3 1 3 1 3 1 Z " fill="#007AFF" transform="translate(437,20)"/>
<path d="M0 0 C3 1 3 1 3 1 Z " fill="#007AFF" transform="translate(200,20)"/>
<path d="M0 0 C3 1 3 1 3 1 Z " fill="#008AFF" transform="translate(432,18)"/>
<path d="M0 0 C3 1 3 1 3 1 Z " fill="#008AFF" transform="translate(205,18)"/>
<path d="M0 0 C3 1 3 1 3 1 Z " fill="#00DAF6" transform="translate(429,17)"/>
<path d="M0 0 C3 1 3 1 3 1 Z " fill="#00DAF6" transform="translate(208,17)"/>
<path d="M0 0 C3 1 3 1 3 1 Z " fill="#0069FF" transform="translate(424,15)"/>
<path d="M0 0 C3 1 3 1 3 1 Z " fill="#0069FF" transform="translate(213,15)"/>
<path d="M0 0 C3 1 3 1 3 1 Z " fill="#0058F4" transform="translate(421,14)"/>
<path d="M0 0 C3 1 3 1 3 1 Z " fill="#0058F4" transform="translate(216,14)"/>
<path d="M0 0 C3 1 3 1 3 1 Z " fill="#0057FF" transform="translate(418,13)"/>
<path d="M0 0 C3 1 3 1 3 1 Z " fill="#0057FF" transform="translate(219,13)"/>
<path d="M0 0 C3 1 3 1 3 1 Z " fill="#009AFF" transform="translate(411,11)"/>
<path d="M0 0 C3 1 3 1 3 1 Z " fill="#009AFF" transform="translate(226,11)"/>
<path d="M0 0 C3 1 3 1 3 1 Z " fill="#00DFFF" transform="translate(408,10)"/>
<path d="M0 0 C3 1 3 1 3 1 Z " fill="#00DFFF" transform="translate(229,10)"/>
<path d="M0 0 C2 1 2 1 2 1 Z " fill="#0099F2" transform="translate(427,623)"/>
<path d="M0 0 C2 1 2 1 2 1 Z " fill="#0099FF" transform="translate(211,623)"/>
<path d="M0 0 C2 1 2 1 2 1 Z " fill="#009CFF" transform="translate(435,620)"/>
<path d="M0 0 C2 1 2 1 2 1 Z " fill="#009CFF" transform="translate(203,620)"/>
<path d="M0 0 C2 1 2 1 2 1 Z " fill="#009CEE" transform="translate(440,618)"/>
<path d="M0 0 C2 1 2 1 2 1 Z " fill="#009CEE" transform="translate(198,618)"/>
<path d="M0 0 C2 1 2 1 2 1 Z " fill="#00CBEE" transform="translate(445,616)"/>
<path d="M0 0 C2 1 2 1 2 1 Z " fill="#00CBFF" transform="translate(193,616)"/>
<path d="M0 0 C2 1 2 1 2 1 Z " fill="#00B2FF" transform="translate(447,615)"/>
<path d="M0 0 C2 1 2 1 2 1 Z " fill="#00B2FF" transform="translate(191,615)"/>
<path d="M0 0 C2 1 2 1 2 1 Z " fill="#00B7FF" transform="translate(449,614)"/>
<path d="M0 0 C2 1 2 1 2 1 Z " fill="#00B7FF" transform="translate(189,614)"/>
<path d="M0 0 C2 1 2 1 2 1 Z " fill="#006FFF" transform="translate(452,613)"/>
<path d="M0 0 C2 1 2 1 2 1 Z " fill="#006FFF" transform="translate(186,613)"/>
<path d="M0 0 C2 1 2 1 2 1 Z " fill="#00CBEE" transform="translate(454,612)"/>
<path d="M0 0 C2 1 2 1 2 1 Z " fill="#00CBED" transform="translate(184,612)"/>
<path d="M0 0 C2 1 2 1 2 1 Z " fill="#00C6EE" transform="translate(456,611)"/>
<path d="M0 0 C2 1 2 1 2 1 Z " fill="#00C6FF" transform="translate(182,611)"/>
<path d="M0 0 C2 1 2 1 2 1 Z " fill="#00B1C8" transform="translate(458,610)"/>
<path d="M0 0 C2 1 2 1 2 1 Z " fill="#00B1FF" transform="translate(180,610)"/>
<path d="M0 0 C2 1 2 1 2 1 Z " fill="#00B4FF" transform="translate(460,609)"/>
<path d="M0 0 C2 1 2 1 2 1 Z " fill="#00B4FF" transform="translate(178,609)"/>
<path d="M0 0 C2 1 2 1 2 1 Z " fill="#00B4FF" transform="translate(462,608)"/>
<path d="M0 0 C2 1 2 1 2 1 Z " fill="#00B4FF" transform="translate(176,608)"/>
<path d="M0 0 C2 1 2 1 2 1 Z " fill="#00B4FF" transform="translate(464,607)"/>
<path d="M0 0 C2 1 2 1 2 1 Z " fill="#00B4FF" transform="translate(174,607)"/>
<path d="M0 0 C2 1 2 1 2 1 Z " fill="#00B4CA" transform="translate(466,606)"/>
<path d="M0 0 C2 1 2 1 2 1 Z " fill="#00E4FF" transform="translate(172,606)"/>
<path d="M0 0 C2 1 2 1 2 1 Z " fill="#00C8F0" transform="translate(468,605)"/>
<path d="M0 0 C2 1 2 1 2 1 Z " fill="#00C6EE" transform="translate(170,605)"/>
<path d="M0 0 C2 1 2 1 2 1 Z " fill="#004BEE" transform="translate(470,604)"/>
<path d="M0 0 C2 1 2 1 2 1 Z " fill="#004BEE" transform="translate(168,604)"/>
<path d="M0 0 C2 1 2 1 2 1 Z " fill="#006C7F" transform="translate(472,603)"/>
<path d="M0 0 C2 1 2 1 2 1 Z " fill="#006C7F" transform="translate(166,603)"/>
<path d="M0 0 C2 1 2 1 2 1 Z " fill="#0097FF" transform="translate(475,601)"/>
<path d="M0 0 C2 1 2 1 2 1 Z " fill="#0097FF" transform="translate(163,601)"/>
<path d="M0 0 C2 1 2 1 2 1 Z " fill="#00E4FF" transform="translate(477,600)"/>
<path d="M0 0 C2 1 2 1 2 1 Z " fill="#00E4FF" transform="translate(161,600)"/>
<path d="M0 0 C2 1 2 1 2 1 Z " fill="#004BEE" transform="translate(479,599)"/>
<path d="M0 0 C2 1 2 1 2 1 Z " fill="#004BEE" transform="translate(159,599)"/>
<path d="M0 0 C2 1 2 1 2 1 Z " fill="#0098FF" transform="translate(482,597)"/>
<path d="M0 0 C2 1 2 1 2 1 Z " fill="#0098FF" transform="translate(156,597)"/>
<path d="M0 0 C2 1 2 1 2 1 Z " fill="#004EEE" transform="translate(484,596)"/>
<path d="M0 0 C2 1 2 1 2 1 Z " fill="#004EEE" transform="translate(154,596)"/>
<path d="M0 0 C2 1 2 1 2 1 Z " fill="#0098FF" transform="translate(487,594)"/>
<path d="M0 0 C2 1 2 1 2 1 Z " fill="#0098FF" transform="translate(151,594)"/>
<path d="M0 0 C2 1 2 1 2 1 Z " fill="#004E7F" transform="translate(489,593)"/>
<path d="M0 0 C2 1 2 1 2 1 Z " fill="#004E7F" transform="translate(149,593)"/>
<path d="M0 0 C2 1 2 1 2 1 Z " fill="#004FEF" transform="translate(492,591)"/>
<path d="M0 0 C2 1 2 1 2 1 Z " fill="#004EEF" transform="translate(146,591)"/>
<path d="M0 0 C2 1 2 1 2 1 Z " fill="#00E4FF" transform="translate(495,589)"/>
<path d="M0 0 C2 1 2 1 2 1 Z " fill="#00E3FF" transform="translate(143,589)"/>
<path d="M0 0 C2 1 2 1 2 1 Z " fill="#00E4FF" transform="translate(498,587)"/>
<path d="M0 0 C2 1 2 1 2 1 Z " fill="#00E4FF" transform="translate(140,587)"/>
<path d="M0 0 C2 1 2 1 2 1 Z " fill="#0069FF" transform="translate(501,585)"/>
<path d="M0 0 C2 1 2 1 2 1 Z " fill="#0069FF" transform="translate(137,585)"/>
<path d="M0 0 C2 1 2 1 2 1 Z " fill="#006AFF" transform="translate(508,580)"/>
<path d="M0 0 C2 1 2 1 2 1 Z " fill="#00E4FF" transform="translate(130,580)"/>
<path d="M0 0 C2 1 2 1 2 1 Z " fill="#00E4FF" transform="translate(512,577)"/>
<path d="M0 0 C2 1 2 1 2 1 Z " fill="#00E4FF" transform="translate(126,577)"/>
<path d="" fill="#009AFF" transform="translate(0,0)"/>
<path d="" fill="#009AFF" transform="translate(0,0)"/>
<path d="" fill="#00B4FF" transform="translate(0,0)"/>
<path d="" fill="#00B4FF" transform="translate(0,0)"/>
<path d="" fill="#00B4FF" transform="translate(0,0)"/>
<path d="" fill="#00B4FF" transform="translate(0,0)"/>
<path d="" fill="#009CED" transform="translate(0,0)"/>
<path d="" fill="#009BFF" transform="translate(0,0)"/>
<path d="" fill="#009BFF" transform="translate(0,0)"/>
<path d="" fill="#009BFF" transform="translate(0,0)"/>
<path d="" fill="#00B4FF" transform="translate(0,0)"/>
<path d="" fill="#00B4FF" transform="translate(0,0)"/>
<path d="" fill="#00B4FF" transform="translate(0,0)"/>
<path d="" fill="#009AFF" transform="translate(0,0)"/>
<path d="" fill="#009AFF" transform="translate(0,0)"/>
<path d="M0 0 C2 1 2 1 2 1 Z " fill="#00E4FF" transform="translate(512,62)"/>
<path d="M0 0 C2 1 2 1 2 1 Z " fill="#00E4FF" transform="translate(126,62)"/>
<path d="M0 0 C2 1 2 1 2 1 Z " fill="#00E4FF" transform="translate(508,59)"/>
<path d="M0 0 C2 1 2 1 2 1 Z " fill="#006AFF" transform="translate(130,59)"/>
<path d="M0 0 C2 1 2 1 2 1 Z " fill="#0069FF" transform="translate(501,54)"/>
<path d="M0 0 C2 1 2 1 2 1 Z " fill="#0069FF" transform="translate(137,54)"/>
<path d="M0 0 C2 1 2 1 2 1 Z " fill="#00E4FF" transform="translate(498,52)"/>
<path d="M0 0 C2 1 2 1 2 1 Z " fill="#00E4FF" transform="translate(140,52)"/>
<path d="M0 0 C2 1 2 1 2 1 Z " fill="#00E3FF" transform="translate(495,50)"/>
<path d="M0 0 C2 1 2 1 2 1 Z " fill="#00E3FF" transform="translate(143,50)"/>
<path d="M0 0 C2 1 2 1 2 1 Z " fill="#004EEF" transform="translate(492,48)"/>
<path d="M0 0 C2 1 2 1 2 1 Z " fill="#004EEF" transform="translate(146,48)"/>
<path d="M0 0 C2 1 2 1 2 1 Z " fill="#004E7F" transform="translate(489,46)"/>
<path d="M0 0 C2 1 2 1 2 1 Z " fill="#004E7F" transform="translate(149,46)"/>
<path d="M0 0 C2 1 2 1 2 1 Z " fill="#0098FF" transform="translate(487,45)"/>
<path d="M0 0 C2 1 2 1 2 1 Z " fill="#0098FF" transform="translate(151,45)"/>
<path d="M0 0 C2 1 2 1 2 1 Z " fill="#004EEE" transform="translate(484,43)"/>
<path d="M0 0 C2 1 2 1 2 1 Z " fill="#004EEE" transform="translate(154,43)"/>
<path d="M0 0 C2 1 2 1 2 1 Z " fill="#0098FF" transform="translate(482,42)"/>
<path d="M0 0 C2 1 2 1 2 1 Z " fill="#0098FF" transform="translate(156,42)"/>
<path d="M0 0 C2 1 2 1 2 1 Z " fill="#004BEE" transform="translate(479,40)"/>
<path d="M0 0 C2 1 2 1 2 1 Z " fill="#004BEE" transform="translate(159,40)"/>
<path d="M0 0 C2 1 2 1 2 1 Z " fill="#00E4FF" transform="translate(477,39)"/>
<path d="M0 0 C2 1 2 1 2 1 Z " fill="#00E4FF" transform="translate(161,39)"/>
<path d="M0 0 C2 1 2 1 2 1 Z " fill="#0097FF" transform="translate(475,38)"/>
<path d="M0 0 C2 1 2 1 2 1 Z " fill="#0097FF" transform="translate(163,38)"/>
<path d="M0 0 C2 1 2 1 2 1 Z " fill="#006C7F" transform="translate(472,36)"/>
<path d="M0 0 C2 1 2 1 2 1 Z " fill="#006C7F" transform="translate(166,36)"/>
<path d="M0 0 C2 1 2 1 2 1 Z " fill="#004BEE" transform="translate(470,35)"/>
<path d="M0 0 C2 1 2 1 2 1 Z " fill="#004BEE" transform="translate(168,35)"/>
<path d="M0 0 C2 1 2 1 2 1 Z " fill="#00C6EE" transform="translate(468,34)"/>
<path d="M0 0 C2 1 2 1 2 1 Z " fill="#00C6EE" transform="translate(170,34)"/>
<path d="M0 0 C2 1 2 1 2 1 Z " fill="#00E4FF" transform="translate(466,33)"/>
<path d="M0 0 C2 1 2 1 2 1 Z " fill="#00E4FF" transform="translate(172,33)"/>
<path d="M0 0 C2 1 2 1 2 1 Z " fill="#00B4FF" transform="translate(464,32)"/>
<path d="M0 0 C2 1 2 1 2 1 Z " fill="#00B4FF" transform="translate(174,32)"/>
<path d="M0 0 C2 1 2 1 2 1 Z " fill="#00B4FF" transform="translate(462,31)"/>
<path d="M0 0 C2 1 2 1 2 1 Z " fill="#00B4FF" transform="translate(176,31)"/>
<path d="M0 0 C2 1 2 1 2 1 Z " fill="#00B4FF" transform="translate(460,30)"/>
<path d="M0 0 C2 1 2 1 2 1 Z " fill="#00B4FF" transform="translate(178,30)"/>
<path d="M0 0 C2 1 2 1 2 1 Z " fill="#00B1FF" transform="translate(458,29)"/>
<path d="M0 0 C2 1 2 1 2 1 Z " fill="#00B1FF" transform="translate(180,29)"/>
<path d="M0 0 C2 1 2 1 2 1 Z " fill="#00C6FF" transform="translate(456,28)"/>
<path d="M0 0 C2 1 2 1 2 1 Z " fill="#00C6FF" transform="translate(182,28)"/>
<path d="M0 0 C2 1 2 1 2 1 Z " fill="#00CBEE" transform="translate(454,27)"/>
<path d="M0 0 C2 1 2 1 2 1 Z " fill="#00CBEE" transform="translate(184,27)"/>
<path d="M0 0 C2 1 2 1 2 1 Z " fill="#006FFF" transform="translate(452,26)"/>
<path d="M0 0 C2 1 2 1 2 1 Z " fill="#006FFF" transform="translate(186,26)"/>
<path d="M0 0 C2 1 2 1 2 1 Z " fill="#00B7FF" transform="translate(449,25)"/>
<path d="M0 0 C2 1 2 1 2 1 Z " fill="#00B7FF" transform="translate(189,25)"/>
<path d="M0 0 C2 1 2 1 2 1 Z " fill="#00B2FF" transform="translate(447,24)"/>
<path d="M0 0 C2 1 2 1 2 1 Z " fill="#00B2FF" transform="translate(191,24)"/>
<path d="M0 0 C2 1 2 1 2 1 Z " fill="#00CBFF" transform="translate(445,23)"/>
<path d="M0 0 C2 1 2 1 2 1 Z " fill="#00CBFF" transform="translate(193,23)"/>
<path d="M0 0 C2 1 2 1 2 1 Z " fill="#009CEE" transform="translate(440,21)"/>
<path d="M0 0 C2 1 2 1 2 1 Z " fill="#009CEE" transform="translate(198,21)"/>
<path d="M0 0 C2 1 2 1 2 1 Z " fill="#009CFF" transform="translate(435,19)"/>
<path d="M0 0 C2 1 2 1 2 1 Z " fill="#009CFF" transform="translate(203,19)"/>
<path d="M0 0 C2 1 2 1 2 1 Z " fill="#0097FF" transform="translate(427,16)"/>
<path d="M0 0 C2 1 2 1 2 1 Z " fill="#0097FF" transform="translate(211,16)"/>
<path d="" fill="#00D4FF" transform="translate(0,0)"/>
<path d="" fill="#00D4FF" transform="translate(0,0)"/>
<path d="" fill="#00D4FF" transform="translate(0,0)"/>
<path d="" fill="#00D4FF" transform="translate(0,0)"/>
<path d="" fill="#00D5FF" transform="translate(0,0)"/>
<path d="" fill="#00D5FF" transform="translate(0,0)"/>
<path d="" fill="#0065CF" transform="translate(0,0)"/>
<path d="" fill="#0065CF" transform="translate(0,0)"/>
<path d="" fill="#00D3FF" transform="translate(0,0)"/>
<path d="" fill="#00D3FF" transform="translate(0,0)"/>
<path d="" fill="#00C9FF" transform="translate(0,0)"/>
<path d="" fill="#00C9FF" transform="translate(0,0)"/>
<path d="" fill="#00C9FF" transform="translate(0,0)"/>
<path d="" fill="#00C9FF" transform="translate(0,0)"/>
<path d="" fill="#0066FF" transform="translate(0,0)"/>
<path d="" fill="#0066FF" transform="translate(0,0)"/>
<path d="" fill="#0094FF" transform="translate(0,0)"/>
<path d="" fill="#0094FF" transform="translate(0,0)"/>
<path d="" fill="#0096DD" transform="translate(0,0)"/>
<path d="" fill="#0096FF" transform="translate(0,0)"/>
<path d="" fill="#0066C2" transform="translate(0,0)"/>
<path d="" fill="#005CC2" transform="translate(0,0)"/>
<path d="" fill="#0097FF" transform="translate(0,0)"/>
<path d="" fill="#0097FF" transform="translate(0,0)"/>
<path d="" fill="#005CC5" transform="translate(0,0)"/>
<path d="" fill="#005CFF" transform="translate(0,0)"/>
<path d="" fill="#0099E0" transform="translate(0,0)"/>
<path d="" fill="#0098FF" transform="translate(0,0)"/>
<path d="" fill="#00CFFF" transform="translate(0,0)"/>
<path d="" fill="#00CFFF" transform="translate(0,0)"/>
<path d="" fill="#0094FF" transform="translate(0,0)"/>
<path d="" fill="#0094FF" transform="translate(0,0)"/>
<path d="" fill="#00CFFF" transform="translate(0,0)"/>
<path d="" fill="#00CFFF" transform="translate(0,0)"/>
<path d="" fill="#0095FF" transform="translate(0,0)"/>
<path d="" fill="#0095FF" transform="translate(0,0)"/>
<path d="" fill="#0095FF" transform="translate(0,0)"/>
<path d="" fill="#0095FF" transform="translate(0,0)"/>
<path d="" fill="#005EC7" transform="translate(0,0)"/>
<path d="" fill="#005EC6" transform="translate(0,0)"/>
<path d="" fill="#00D1FF" transform="translate(0,0)"/>
<path d="" fill="#00D1FF" transform="translate(0,0)"/>
<path d="" fill="#0095FF" transform="translate(0,0)"/>
<path d="" fill="#0095FF" transform="translate(0,0)"/>
<path d="" fill="#0097FF" transform="translate(0,0)"/>
<path d="" fill="#0097FF" transform="translate(0,0)"/>
<path d="" fill="#0097FF" transform="translate(0,0)"/>
<path d="" fill="#0097FF" transform="translate(0,0)"/>
<path d="" fill="#0093FF" transform="translate(0,0)"/>
<path d="" fill="#0093FF" transform="translate(0,0)"/>
<path d="" fill="#0098FF" transform="translate(0,0)"/>
<path d="" fill="#0098FF" transform="translate(0,0)"/>
<path d="" fill="#0099FF" transform="translate(0,0)"/>
<path d="" fill="#0099FF" transform="translate(0,0)"/>
<path d="" fill="#005FFF" transform="translate(0,0)"/>
<path d="" fill="#005FFF" transform="translate(0,0)"/>
<path d="" fill="#00CFFF" transform="translate(0,0)"/>
<path d="" fill="#00CFFF" transform="translate(0,0)"/>
<path d="" fill="#00CCFF" transform="translate(0,0)"/>
<path d="" fill="#00CCFF" transform="translate(0,0)"/>
<path d="" fill="#00CEFF" transform="translate(0,0)"/>
<path d="" fill="#00CEFF" transform="translate(0,0)"/>
<path d="" fill="#0094DD" transform="translate(0,0)"/>
<path d="" fill="#0094FF" transform="translate(0,0)"/>
<path d="" fill="#00CFFF" transform="translate(0,0)"/>
<path d="" fill="#00CFFF" transform="translate(0,0)"/>
<path d="" fill="#0095E0" transform="translate(0,0)"/>
<path d="" fill="#0095FF" transform="translate(0,0)"/>
<path d="" fill="#0096E0" transform="translate(0,0)"/>
<path d="" fill="#0096DD" transform="translate(0,0)"/>
<path d="" fill="#00CEFF" transform="translate(0,0)"/>
<path d="" fill="#00CDFF" transform="translate(0,0)"/>
<path d="" fill="#00D0FF" transform="translate(0,0)"/>
<path d="" fill="#00CFFF" transform="translate(0,0)"/>
<path d="" fill="#0060FF" transform="translate(0,0)"/>
<path d="" fill="#0060FF" transform="translate(0,0)"/>
<path d="" fill="#0062FF" transform="translate(0,0)"/>
<path d="" fill="#0062FF" transform="translate(0,0)"/>
<path d="" fill="#0099FF" transform="translate(0,0)"/>
<path d="" fill="#0099FF" transform="translate(0,0)"/>
<path d="" fill="#0097FF" transform="translate(0,0)"/>
<path d="" fill="#0097FF" transform="translate(0,0)"/>
<path d="" fill="#0096FF" transform="translate(0,0)"/>
<path d="" fill="#0095FF" transform="translate(0,0)"/>
<path d="" fill="#00D1FF" transform="translate(0,0)"/>
<path d="" fill="#00D1FF" transform="translate(0,0)"/>
<path d="" fill="#0097FF" transform="translate(0,0)"/>
<path d="" fill="#0097FF" transform="translate(0,0)"/>
<path d="" fill="#0095FF" transform="translate(0,0)"/>
<path d="" fill="#0095FF" transform="translate(0,0)"/>
<path d="" fill="#0096FF" transform="translate(0,0)"/>
<path d="" fill="#0095FF" transform="translate(0,0)"/>
<path d="" fill="#00CFFF" transform="translate(0,0)"/>
<path d="" fill="#00CFFF" transform="translate(0,0)"/>
<path d="" fill="#0097DD" transform="translate(0,0)"/>
<path d="" fill="#0097DD" transform="translate(0,0)"/>
<path d="" fill="#0099FF" transform="translate(0,0)"/>
<path d="" fill="#0099FF" transform="translate(0,0)"/>
<path d="" fill="#0097DD" transform="translate(0,0)"/>
<path d="" fill="#0097DD" transform="translate(0,0)"/>
<path d="" fill="#0097DD" transform="translate(0,0)"/>
<path d="" fill="#0097DD" transform="translate(0,0)"/>
<path d="" fill="#0099FF" transform="translate(0,0)"/>
<path d="" fill="#0099FF" transform="translate(0,0)"/>
<path d="" fill="#0097DD" transform="translate(0,0)"/>
<path d="" fill="#0097DD" transform="translate(0,0)"/>
<path d="" fill="#00CFFF" transform="translate(0,0)"/>
<path d="" fill="#00CFFF" transform="translate(0,0)"/>
<path d="" fill="#0095FF" transform="translate(0,0)"/>
<path d="" fill="#0095FF" transform="translate(0,0)"/>
<path d="" fill="#0095FF" transform="translate(0,0)"/>
<path d="" fill="#0095FF" transform="translate(0,0)"/>
<path d="" fill="#0097FF" transform="translate(0,0)"/>
<path d="" fill="#0097FF" transform="translate(0,0)"/>
<path d="" fill="#00D1FF" transform="translate(0,0)"/>
<path d="" fill="#00D1FF" transform="translate(0,0)"/>
<path d="" fill="#0095FF" transform="translate(0,0)"/>
<path d="" fill="#0095FF" transform="translate(0,0)"/>
<path d="" fill="#0097FF" transform="translate(0,0)"/>
<path d="" fill="#0097FF" transform="translate(0,0)"/>
<path d="" fill="#0099FF" transform="translate(0,0)"/>
<path d="" fill="#0099FF" transform="translate(0,0)"/>
<path d="" fill="#0062FF" transform="translate(0,0)"/>
<path d="" fill="#0062FF" transform="translate(0,0)"/>
<path d="" fill="#0060FF" transform="translate(0,0)"/>
<path d="" fill="#0060FF" transform="translate(0,0)"/>
<path d="" fill="#00CFFF" transform="translate(0,0)"/>
<path d="" fill="#00CFFF" transform="translate(0,0)"/>
<path d="" fill="#00CCFF" transform="translate(0,0)"/>
<path d="" fill="#00CCFF" transform="translate(0,0)"/>
<path d="" fill="#00CEFF" transform="translate(0,0)"/>
<path d="" fill="#00CEFF" transform="translate(0,0)"/>
<path d="" fill="#0094FF" transform="translate(0,0)"/>
<path d="" fill="#0094FF" transform="translate(0,0)"/>
<path d="" fill="#00CFFF" transform="translate(0,0)"/>
<path d="" fill="#00CFFF" transform="translate(0,0)"/>
<path d="" fill="#0094FF" transform="translate(0,0)"/>
<path d="" fill="#0094FF" transform="translate(0,0)"/>
<path d="" fill="#00CEFF" transform="translate(0,0)"/>
<path d="" fill="#00CEFF" transform="translate(0,0)"/>
<path d="" fill="#00CCFF" transform="translate(0,0)"/>
<path d="" fill="#00CCFF" transform="translate(0,0)"/>
<path d="" fill="#00CFFF" transform="translate(0,0)"/>
<path d="" fill="#00CFFF" transform="translate(0,0)"/>
<path d="" fill="#005FFF" transform="translate(0,0)"/>
<path d="" fill="#005FFF" transform="translate(0,0)"/>
<path d="" fill="#0099FF" transform="translate(0,0)"/>
<path d="" fill="#0099FF" transform="translate(0,0)"/>
<path d="" fill="#0098FF" transform="translate(0,0)"/>
<path d="" fill="#0098FF" transform="translate(0,0)"/>
<path d="" fill="#0093FF" transform="translate(0,0)"/>
<path d="" fill="#0093FF" transform="translate(0,0)"/>
<path d="" fill="#0097FF" transform="translate(0,0)"/>
<path d="" fill="#0097FF" transform="translate(0,0)"/>
<path d="" fill="#0097FF" transform="translate(0,0)"/>
<path d="" fill="#0097FF" transform="translate(0,0)"/>
<path d="" fill="#0095FF" transform="translate(0,0)"/>
<path d="" fill="#0095FF" transform="translate(0,0)"/>
<path d="" fill="#00D1FF" transform="translate(0,0)"/>
<path d="" fill="#00D1FF" transform="translate(0,0)"/>
<path d="" fill="#005EC7" transform="translate(0,0)"/>
<path d="" fill="#005FC7" transform="translate(0,0)"/>
<path d="" fill="#0095FF" transform="translate(0,0)"/>
<path d="" fill="#0097FF" transform="translate(0,0)"/>
<path d="" fill="#0095FF" transform="translate(0,0)"/>
<path d="" fill="#0095FF" transform="translate(0,0)"/>
<path d="" fill="#00CFFF" transform="translate(0,0)"/>
<path d="" fill="#00CFFF" transform="translate(0,0)"/>
<path d="" fill="#0094FF" transform="translate(0,0)"/>
<path d="" fill="#0094FF" transform="translate(0,0)"/>
<path d="" fill="#00CFFF" transform="translate(0,0)"/>
<path d="" fill="#00CFFF" transform="translate(0,0)"/>
<path d="" fill="#0099FF" transform="translate(0,0)"/>
<path d="" fill="#0099FF" transform="translate(0,0)"/>
<path d="" fill="#005CFF" transform="translate(0,0)"/>
<path d="" fill="#005BFF" transform="translate(0,0)"/>
<path d="" fill="#0097FF" transform="translate(0,0)"/>
<path d="" fill="#0097FF" transform="translate(0,0)"/>
<path d="" fill="#005CC2" transform="translate(0,0)"/>
<path d="" fill="#0066C2" transform="translate(0,0)"/>
<path d="" fill="#0096FF" transform="translate(0,0)"/>
<path d="" fill="#0096FF" transform="translate(0,0)"/>
<path d="" fill="#0094FF" transform="translate(0,0)"/>
<path d="" fill="#0094FF" transform="translate(0,0)"/>
<path d="" fill="#0066FF" transform="translate(0,0)"/>
<path d="" fill="#0066FF" transform="translate(0,0)"/>
<path d="" fill="#00C9FF" transform="translate(0,0)"/>
<path d="" fill="#00C9FF" transform="translate(0,0)"/>
<path d="" fill="#00C9FF" transform="translate(0,0)"/>
<path d="" fill="#00C9FF" transform="translate(0,0)"/>
<path d="" fill="#00D3FF" transform="translate(0,0)"/>
<path d="" fill="#00D3FF" transform="translate(0,0)"/>
<path d="" fill="#0065CF" transform="translate(0,0)"/>
<path d="" fill="#0065CF" transform="translate(0,0)"/>
<path d="" fill="#00D5FF" transform="translate(0,0)"/>
<path d="" fill="#00D5FF" transform="translate(0,0)"/>
<path d="" fill="#00D4FF" transform="translate(0,0)"/>
<path d="" fill="#00D4FF" transform="translate(0,0)"/>
<path d="" fill="#00D4FF" transform="translate(0,0)"/>
<path d="" fill="#00D4FF" transform="translate(0,0)"/>
</svg>
